<svg xmlns="http://www.w3.org/2000/svg" width="900" height="340">
<text x="4" y="75" font-size="12">corner_bottom_left</text>
<path d="M60.0,80.0 L68.2,76.5 L76.4,68.4 L92.8,49.5 L125.6,30.0 L169.3,32.2 L242.0,33.8 L333.3,33.6 L497.3,33.6 L880.0,33.6" fill="none" stroke="#6750a4" stroke-width="2"/>
<path d="M60.0,80.0 L60.5,80.0 L61.1,80.0 L61.6,80.0 L62.2,80.0 L62.7,80.0 L63.3,79.9 L63.8,79.9 L64.4,79.8 L64.9,79.8 L65.5,79.7 L66.0,79.6 L66.6,79.5 L67.1,79.4 L67.7,79.3 L68.2,79.1 L68.7,79.0 L69.3,78.8 L69.8,78.7 L70.4,78.5 L70.9,78.4 L71.5,78.2 L72.0,78.0 L72.6,77.8 L73.1,77.6 L73.7,77.4 L74.2,77.2 L74.8,77.0 L75.3,76.8 L75.9,76.6 L76.4,76.4 L76.9,76.1 L77.5,75.9 L78.0,75.7 L78.6,75.4 L79.1,75.2 L79.7,75.0 L80.2,74.7 L80.8,74.5 L81.3,74.2 L81.9,74.0 L82.4,73.8 L83.0,73.5 L83.5,73.3 L84.1,73.0 L84.6,72.8 L85.1,72.5 L85.7,72.3 L86.2,72.0 L86.8,71.8 L87.3,71.6 L87.9,71.3 L88.4,71.1 L89.0,70.8 L89.5,70.6 L90.1,70.4 L90.6,70.1 L91.2,69.9 L91.7,69.7 L92.3,69.4 L92.8,69.2 L93.3,69.0 L93.9,68.8 L94.4,68.5 L95.0,68.3 L95.5,68.1 L96.1,67.9 L96.6,67.7 L97.2,67.5 L97.7,67.3 L98.3,67.1 L98.8,66.9 L99.4,66.7 L99.9,66.5 L100.5,66.3 L101.0,66.1 L101.5,66.0 L102.1,65.8 L102.6,65.6 L103.2,65.5 L103.7,65.3 L104.3,65.1 L104.8,65.0 L105.4,64.8 L105.9,64.7 L106.5,64.5 L107.0,64.4 L107.6,64.2 L108.1,64.1 L108.7,64.0 L109.2,63.8 L109.7,63.7 L110.3,63.6 L110.8,63.4 L111.4,63.3 L111.9,63.2 L112.5,63.1 L113.0,63.0 L113.6,62.9 L114.1,62.8 L114.7,62.7 L115.2,62.6 L115.8,62.5 L116.3,62.4 L116.9,62.3 L117.4,62.3 L117.9,62.2 L118.5,62.1 L119.0,62.0 L119.6,62.0 L120.1,61.9 L120.7,61.8 L121.2,61.8 L121.8,61.7 L122.3,61.6 L122.9,61.6 L123.4,61.5 L124.0,61.5 L124.5,61.4 L125.1,61.4 L125.6,61.4 L126.1,61.3 L126.7,61.3 L127.2,61.2 L127.8,61.2 L128.3,61.2 L128.9,61.2 L129.4,61.1 L130.0,61.1 L130.5,61.1 L131.1,61.1 L131.6,61.1 L132.2,61.0 L132.7,61.0 L133.3,61.0 L133.8,61.0 L134.3,61.0 L134.9,61.0 L135.4,61.0 L136.0,61.0 L136.5,61.0 L137.1,61.0 L137.6,61.0 L138.2,61.0 L138.7,61.0 L139.3,61.0 L139.8,61.0 L140.4,61.0 L140.9,61.0 L141.5,61.0 L142.0,61.0 L142.5,61.0 L143.1,61.0 L143.6,61.0 L144.2,61.0 L144.7,61.1 L145.3,61.1 L145.8,61.1 L146.4,61.1 L146.9,61.1 L147.5,61.1 L148.0,61.2 L148.6,61.2 L149.1,61.2 L149.7,61.2 L150.2,61.2 L150.7,61.3 L151.3,61.3 L151.8,61.3 L152.4,61.3 L152.9,61.3 L153.5,61.4 L154.0,61.4 L154.6,61.4 L155.1,61.4 L155.7,61.4 L156.2,61.5 L156.8,61.5 L157.3,61.5 L157.9,61.5 L158.4,61.6 L158.9,61.6 L159.5,61.6 L160.0,61.6 L160.6,61.7 L161.1,61.7 L161.7,61.7 L162.2,61.7 L162.8,61.7 L163.3,61.8 L163.9,61.8 L164.4,61.8 L165.0,61.8 L165.5,61.9 L166.1,61.9 L166.6,61.9 L167.1,61.9 L167.7,61.9 L168.2,62.0 L168.8,62.0 L169.3,62.0 L169.9,62.0 L170.4,62.1 L171.0,62.1 L171.5,62.1 L172.1,62.1 L172.6,62.1 L173.2,62.2 L173.7,62.2 L174.3,62.2 L174.8,62.2 L175.3,62.2 L175.9,62.2 L176.4,62.3 L177.0,62.3 L177.5,62.3 L178.1,62.3 L178.6,62.3 L179.2,62.3 L179.7,62.4 L180.3,62.4 L180.8,62.4 L181.4,62.4 L181.9,62.4 L182.5,62.4 L183.0,62.4 L183.5,62.5 L184.1,62.5 L184.6,62.5 L185.2,62.5 L185.7,62.5 L186.3,62.5 L186.8,62.5 L187.4,62.5 L187.9,62.6 L188.5,62.6 L189.0,62.6 L189.6,62.6 L190.1,62.6 L190.7,62.6 L191.2,62.6 L191.7,62.6 L192.3,62.6 L192.8,62.6 L193.4,62.6 L193.9,62.7 L194.5,62.7 L195.0,62.7 L195.6,62.7 L196.1,62.7 L196.7,62.7 L197.2,62.7 L197.8,62.7 L198.3,62.7 L198.9,62.7 L199.4,62.7 L199.9,62.7 L200.5,62.7 L201.0,62.7 L201.6,62.7 L202.1,62.7 L202.7,62.7 L203.2,62.7 L203.8,62.7 L204.3,62.7 L204.9,62.8 L205.4,62.8 L206.0,62.8 L206.5,62.8 L207.1,62.8 L207.6,62.8 L208.1,62.8 L208.7,62.8 L209.2,62.8 L209.8,62.8 L210.3,62.8 L210.9,62.8 L211.4,62.8 L212.0,62.8 L212.5,62.8 L213.1,62.8 L213.6,62.8 L214.2,62.8 L214.7,62.8 L215.3,62.8 L215.8,62.8 L216.3,62.8 L216.9,62.8 L217.4,62.8 L218.0,62.8 L218.5,62.8 L219.1,62.8 L219.6,62.8 L220.2,62.8 L220.7,62.8 L221.3,62.8 L221.8,62.8 L222.4,62.8 L222.9,62.8 L223.5,62.8 L224.0,62.7 L224.5,62.7 L225.1,62.7 L225.6,62.7 L226.2,62.7 L226.7,62.7 L227.3,62.7 L227.8,62.7 L228.4,62.7 L228.9,62.7 L229.5,62.7 L230.0,62.7 L230.6,62.7 L231.1,62.7 L231.7,62.7 L232.2,62.7 L232.7,62.7 L233.3,62.7 L233.8,62.7 L234.4,62.7 L234.9,62.7 L235.5,62.7 L236.0,62.7 L236.6,62.7 L237.1,62.7 L237.7,62.7 L238.2,62.7 L238.8,62.7 L239.3,62.7 L239.9,62.7 L240.4,62.7 L240.9,62.7 L241.5,62.7 L242.0,62.7 L242.6,62.7 L243.1,62.7 L243.7,62.7 L244.2,62.7 L244.8,62.7 L245.3,62.7 L245.9,62.7 L246.4,62.7 L247.0,62.7 L247.5,62.7 L248.1,62.7 L248.6,62.7 L249.1,62.7 L249.7,62.7 L250.2,62.7 L250.8,62.7 L251.3,62.6 L251.9,62.6 L252.4,62.6 L253.0,62.6 L253.5,62.6 L254.1,62.6 L254.6,62.6 L255.2,62.6 L255.7,62.6 L256.3,62.6 L256.8,62.6 L257.3,62.6 L257.9,62.6 L258.4,62.6 L259.0,62.6 L259.5,62.6 L260.1,62.6 L260.6,62.6 L261.2,62.6 L261.7,62.6 L262.3,62.6 L262.8,62.6 L263.4,62.6 L263.9,62.6 L264.5,62.6 L265.0,62.6 L265.5,62.6 L266.1,62.6 L266.6,62.6 L267.2,62.6 L267.7,62.6 L268.3,62.6 L268.8,62.6 L269.4,62.6 L269.9,62.6 L270.5,62.6 L271.0,62.6 L271.6,62.6 L272.1,62.6 L272.7,62.6 L273.2,62.6 L273.7,62.6 L274.3,62.6 L274.8,62.6 L275.4,62.6 L275.9,62.6 L276.5,62.6 L277.0,62.6 L277.6,62.6 L278.1,62.6 L278.7,62.6 L279.2,62.6 L279.8,62.6 L280.3,62.6 L280.9,62.6 L281.4,62.6 L281.9,62.6 L282.5,62.6 L283.0,62.6 L283.6,62.6 L284.1,62.6 L284.7,62.6 L285.2,62.6 L285.8,62.6 L286.3,62.6 L286.9,62.6 L287.4,62.6 L288.0,62.6 L288.5,62.6 L289.1,62.6 L289.6,62.6 L290.1,62.6 L290.7,62.6 L291.2,62.6 L291.8,62.6 L292.3,62.6 L292.9,62.6 L293.4,62.6 L294.0,62.6 L294.5,62.6 L295.1,62.6 L295.6,62.6 L296.2,62.6 L296.7,62.6 L297.3,62.6 L297.8,62.6 L298.3,62.6 L298.9,62.6 L299.4,62.6 L300.0,62.6 L300.5,62.6 L301.1,62.6 L301.6,62.6 L302.2,62.6 L302.7,62.6 L303.3,62.6 L303.8,62.6 L304.4,62.6 L304.9,62.6 L305.5,62.6 L306.0,62.6 L306.5,62.6 L307.1,62.6 L307.6,62.6 L308.2,62.6 L308.7,62.6 L309.3,62.6 L309.8,62.6 L310.4,62.6 L310.9,62.6 L311.5,62.6 L312.0,62.6 L312.6,62.6 L313.1,62.6 L313.7,62.6 L314.2,62.6 L314.7,62.6 L315.3,62.6 L315.8,62.6 L316.4,62.6 L316.9,62.6 L317.5,62.6 L318.0,62.6 L318.6,62.6 L319.1,62.6 L319.7,62.6 L320.2,62.6 L320.8,62.6 L321.3,62.6 L321.9,62.6 L322.4,62.6 L322.9,62.6 L323.5,62.6 L324.0,62.6 L324.6,62.6 L325.1,62.6 L325.7,62.6 L326.2,62.6 L326.8,62.6 L327.3,62.6 L327.9,62.6 L328.4,62.6 L329.0,62.6 L329.5,62.6 L330.1,62.6 L330.6,62.6 L331.1,62.6 L331.7,62.6 L332.2,62.6 L332.8,62.6 L333.3,62.6 L333.9,62.6 L334.4,62.6 L335.0,62.6 L335.5,62.6 L336.1,62.6 L336.6,62.6 L337.2,62.6 L337.7,62.6 L338.3,62.6 L338.8,62.6 L339.3,62.6 L339.9,62.6 L340.4,62.6 L341.0,62.6 L341.5,62.6 L342.1,62.6 L342.6,62.6 L343.2,62.6 L343.7,62.6 L344.3,62.6 L344.8,62.6 L345.4,62.6 L345.9,62.6 L346.5,62.6 L347.0,62.6 L347.5,62.6 L348.1,62.6 L348.6,62.6 L349.2,62.6 L349.7,62.6 L350.3,62.6 L350.8,62.6 L351.4,62.6 L351.9,62.6 L352.5,62.6 L353.0,62.6 L353.6,62.6 L354.1,62.6 L354.7,62.6 L355.2,62.6 L355.7,62.6 L356.3,62.6 L356.8,62.6 L357.4,62.6 L357.9,62.6 L358.5,62.6 L359.0,62.6 L359.6,62.6 L360.1,62.6 L360.7,62.6 L361.2,62.6 L361.8,62.6 L362.3,62.6 L362.9,62.6 L363.4,62.6 L363.9,62.6 L364.5,62.6 L365.0,62.6 L365.6,62.6 L366.1,62.6 L366.7,62.6 L367.2,62.6 L367.8,62.6 L368.3,62.6 L368.9,62.6 L369.4,62.6 L370.0,62.6 L370.5,62.6 L371.1,62.6 L371.6,62.6 L372.1,62.6 L372.7,62.6 L373.2,62.6 L373.8,62.6 L374.3,62.6 L374.9,62.6 L375.4,62.6 L376.0,62.6 L376.5,62.6 L377.1,62.6 L377.6,62.6 L378.2,62.6 L378.7,62.6 L379.3,62.6 L379.8,62.6 L380.3,62.6 L380.9,62.6 L381.4,62.6 L382.0,62.6 L382.5,62.6 L383.1,62.6 L383.6,62.6 L384.2,62.6 L384.7,62.6 L385.3,62.6 L385.8,62.6 L386.4,62.6 L386.9,62.6 L387.5,62.6 L388.0,62.6 L388.5,62.6 L389.1,62.6 L389.6,62.6 L390.2,62.6 L390.7,62.6 L391.3,62.6 L391.8,62.6 L392.4,62.6 L392.9,62.6 L393.5,62.6 L394.0,62.6 L394.6,62.6 L395.1,62.6 L395.7,62.6 L396.2,62.6 L396.7,62.6 L397.3,62.6 L397.8,62.6 L398.4,62.6 L398.9,62.6 L399.5,62.6 L400.0,62.6 L400.6,62.6 L401.1,62.6 L401.7,62.6 L402.2,62.6 L402.8,62.6 L403.3,62.6 L403.9,62.6 L404.4,62.6 L404.9,62.6 L405.5,62.6 L406.0,62.6 L406.6,62.6 L407.1,62.6 L407.7,62.6 L408.2,62.6 L408.8,62.6 L409.3,62.6 L409.9,62.6 L410.4,62.6 L411.0,62.6 L411.5,62.6 L412.1,62.6 L412.6,62.6 L413.1,62.6 L413.7,62.6 L414.2,62.6 L414.8,62.6 L415.3,62.6 L415.9,62.6 L416.4,62.6 L417.0,62.6 L417.5,62.6 L418.1,62.6 L418.6,62.6 L419.2,62.6 L419.7,62.6 L420.3,62.6 L420.8,62.6 L421.3,62.6 L421.9,62.6 L422.4,62.6 L423.0,62.6 L423.5,62.6 L424.1,62.6 L424.6,62.6 L425.2,62.6 L425.7,62.6 L426.3,62.6 L426.8,62.6 L427.4,62.6 L427.9,62.6 L428.5,62.6 L429.0,62.6 L429.5,62.6 L430.1,62.6 L430.6,62.6 L431.2,62.6 L431.7,62.6 L432.3,62.6 L432.8,62.6 L433.4,62.6 L433.9,62.6 L434.5,62.6 L435.0,62.6 L435.6,62.6 L436.1,62.6 L436.7,62.6 L437.2,62.6 L437.7,62.6 L438.3,62.6 L438.8,62.6 L439.4,62.6 L439.9,62.6 L440.5,62.6 L441.0,62.6 L441.6,62.6 L442.1,62.6 L442.7,62.6 L443.2,62.6 L443.8,62.6 L444.3,62.6 L444.9,62.6 L445.4,62.6 L445.9,62.6 L446.5,62.6 L447.0,62.6 L447.6,62.6 L448.1,62.6 L448.7,62.6 L449.2,62.6 L449.8,62.6 L450.3,62.6 L450.9,62.6 L451.4,62.6 L452.0,62.6 L452.5,62.6 L453.1,62.6 L453.6,62.6 L454.1,62.6 L454.7,62.6 L455.2,62.6 L455.8,62.6 L456.3,62.6 L456.9,62.6 L457.4,62.6 L458.0,62.6 L458.5,62.6 L459.1,62.6 L459.6,62.6 L460.2,62.6 L460.7,62.6 L461.3,62.6 L461.8,62.6 L462.3,62.6 L462.9,62.6 L463.4,62.6 L464.0,62.6 L464.5,62.6 L465.1,62.6 L465.6,62.6 L466.2,62.6 L466.7,62.6 L467.3,62.6 L467.8,62.6 L468.4,62.6 L468.9,62.6 L469.5,62.6 L470.0,62.6 L470.5,62.6 L471.1,62.6 L471.6,62.6 L472.2,62.6 L472.7,62.6 L473.3,62.6 L473.8,62.6 L474.4,62.6 L474.9,62.6 L475.5,62.6 L476.0,62.6 L476.6,62.6 L477.1,62.6 L477.7,62.6 L478.2,62.6 L478.7,62.6 L479.3,62.6 L479.8,62.6 L480.4,62.6 L480.9,62.6 L481.5,62.6 L482.0,62.6 L482.6,62.6 L483.1,62.6 L483.7,62.6 L484.2,62.6 L484.8,62.6 L485.3,62.6 L485.9,62.6 L486.4,62.6 L486.9,62.6 L487.5,62.6 L488.0,62.6 L488.6,62.6 L489.1,62.6 L489.7,62.6 L490.2,62.6 L490.8,62.6 L491.3,62.6 L491.9,62.6 L492.4,62.6 L493.0,62.6 L493.5,62.6 L494.1,62.6 L494.6,62.6 L495.1,62.6 L495.7,62.6 L496.2,62.6 L496.8,62.6 L497.3,62.6 L497.9,62.6 L498.4,62.6 L499.0,62.6 L499.5,62.6 L500.1,62.6 L500.6,62.6 L501.2,62.6 L501.7,62.6 L502.3,62.6 L502.8,62.6 L503.3,62.6 L503.9,62.6 L504.4,62.6 L505.0,62.6 L505.5,62.6 L506.1,62.6 L506.6,62.6 L507.2,62.6 L507.7,62.6 L508.3,62.6 L508.8,62.6 L509.4,62.6 L509.9,62.6 L510.5,62.6 L511.0,62.6 L511.5,62.6 L512.1,62.6 L512.6,62.6 L513.2,62.6 L513.7,62.6 L514.3,62.6 L514.8,62.6 L515.4,62.6 L515.9,62.6 L516.5,62.6 L517.0,62.6 L517.6,62.6 L518.1,62.6 L518.7,62.6 L519.2,62.6 L519.7,62.6 L520.3,62.6 L520.8,62.6 L521.4,62.6 L521.9,62.6 L522.5,62.6 L523.0,62.6 L523.6,62.6 L524.1,62.6 L524.7,62.6 L525.2,62.6 L525.8,62.6 L526.3,62.6 L526.9,62.6 L527.4,62.6 L527.9,62.6 L528.5,62.6 L529.0,62.6 L529.6,62.6 L530.1,62.6 L530.7,62.6 L531.2,62.6 L531.8,62.6 L532.3,62.6 L532.9,62.6 L533.4,62.6 L534.0,62.6 L534.5,62.6 L535.1,62.6 L535.6,62.6 L536.1,62.6 L536.7,62.6 L537.2,62.6 L537.8,62.6 L538.3,62.6 L538.9,62.6 L539.4,62.6 L540.0,62.6 L540.5,62.6 L541.1,62.6 L541.6,62.6 L542.2,62.6 L542.7,62.6 L543.3,62.6 L543.8,62.6 L544.3,62.6 L544.9,62.6 L545.4,62.6 L546.0,62.6 L546.5,62.6 L547.1,62.6 L547.6,62.6 L548.2,62.6 L548.7,62.6 L549.3,62.6 L549.8,62.6 L550.4,62.6 L550.9,62.6 L551.5,62.6 L552.0,62.6 L552.5,62.6 L553.1,62.6 L553.6,62.6 L554.2,62.6 L554.7,62.6 L555.3,62.6 L555.8,62.6 L556.4,62.6 L556.9,62.6 L557.5,62.6 L558.0,62.6 L558.6,62.6 L559.1,62.6 L559.7,62.6 L560.2,62.6 L560.7,62.6 L561.3,62.6 L561.8,62.6 L562.4,62.6 L562.9,62.6 L563.5,62.6 L564.0,62.6 L564.6,62.6 L565.1,62.6 L565.7,62.6 L566.2,62.6 L566.8,62.6 L567.3,62.6 L567.9,62.6 L568.4,62.6 L568.9,62.6 L569.5,62.6 L570.0,62.6 L570.6,62.6 L571.1,62.6 L571.7,62.6 L572.2,62.6 L572.8,62.6 L573.3,62.6 L573.9,62.6 L574.4,62.6 L575.0,62.6 L575.5,62.6 L576.1,62.6 L576.6,62.6 L577.1,62.6 L577.7,62.6 L578.2,62.6 L578.8,62.6 L579.3,62.6 L579.9,62.6 L580.4,62.6 L581.0,62.6 L581.5,62.6 L582.1,62.6 L582.6,62.6 L583.2,62.6 L583.7,62.6 L584.3,62.6 L584.8,62.6 L585.3,62.6 L585.9,62.6 L586.4,62.6 L587.0,62.6 L587.5,62.6 L588.1,62.6 L588.6,62.6 L589.2,62.6 L589.7,62.6 L590.3,62.6 L590.8,62.6 L591.4,62.6 L591.9,62.6 L592.5,62.6 L593.0,62.6 L593.5,62.6 L594.1,62.6 L594.6,62.6 L595.2,62.6 L595.7,62.6 L596.3,62.6 L596.8,62.6 L597.4,62.6 L597.9,62.6 L598.5,62.6 L599.0,62.6 L599.6,62.6 L600.1,62.6 L600.7,62.6 L601.2,62.6 L601.7,62.6 L602.3,62.6 L602.8,62.6 L603.4,62.6 L603.9,62.6 L604.5,62.6 L605.0,62.6 L605.6,62.6 L606.1,62.6 L606.7,62.6 L607.2,62.6 L607.8,62.6 L608.3,62.6 L608.9,62.6 L609.4,62.6 L609.9,62.6 L610.5,62.6 L611.0,62.6 L611.6,62.6 L612.1,62.6 L612.7,62.6 L613.2,62.6 L613.8,62.6 L614.3,62.6 L614.9,62.6 L615.4,62.6 L616.0,62.6 L616.5,62.6 L617.1,62.6 L617.6,62.6 L618.1,62.6 L618.7,62.6 L619.2,62.6 L619.8,62.6 L620.3,62.6 L620.9,62.6 L621.4,62.6 L622.0,62.6 L622.5,62.6 L623.1,62.6 L623.6,62.6 L624.2,62.6 L624.7,62.6 L625.3,62.6 L625.8,62.6 L626.3,62.6 L626.9,62.6 L627.4,62.6 L628.0,62.6 L628.5,62.6 L629.1,62.6 L629.6,62.6 L630.2,62.6 L630.7,62.6 L631.3,62.6 L631.8,62.6 L632.4,62.6 L632.9,62.6 L633.5,62.6 L634.0,62.6 L634.5,62.6 L635.1,62.6 L635.6,62.6 L636.2,62.6 L636.7,62.6 L637.3,62.6 L637.8,62.6 L638.4,62.6 L638.9,62.6 L639.5,62.6 L640.0,62.6 L640.6,62.6 L641.1,62.6 L641.7,62.6 L642.2,62.6 L642.7,62.6 L643.3,62.6 L643.8,62.6 L644.4,62.6 L644.9,62.6 L645.5,62.6 L646.0,62.6 L646.6,62.6 L647.1,62.6 L647.7,62.6 L648.2,62.6 L648.8,62.6 L649.3,62.6 L649.9,62.6 L650.4,62.6 L650.9,62.6 L651.5,62.6 L652.0,62.6 L652.6,62.6 L653.1,62.6 L653.7,62.6 L654.2,62.6 L654.8,62.6 L655.3,62.6 L655.9,62.6 L656.4,62.6 L657.0,62.6 L657.5,62.6 L658.1,62.6 L658.6,62.6 L659.1,62.6 L659.7,62.6 L660.2,62.6 L660.8,62.6 L661.3,62.6 L661.9,62.6 L662.4,62.6 L663.0,62.6 L663.5,62.6 L664.1,62.6 L664.6,62.6 L665.2,62.6 L665.7,62.6 L666.3,62.6 L666.8,62.6 L667.3,62.6 L667.9,62.6 L668.4,62.6 L669.0,62.6 L669.5,62.6 L670.1,62.6 L670.6,62.6 L671.2,62.6 L671.7,62.6 L672.3,62.6 L672.8,62.6 L673.4,62.6 L673.9,62.6 L674.5,62.6 L675.0,62.6 L675.5,62.6 L676.1,62.6 L676.6,62.6 L677.2,62.6 L677.7,62.6 L678.3,62.6 L678.8,62.6 L679.4,62.6 L679.9,62.6 L680.5,62.6 L681.0,62.6 L681.6,62.6 L682.1,62.6 L682.7,62.6 L683.2,62.6 L683.7,62.6 L684.3,62.6 L684.8,62.6 L685.4,62.6 L685.9,62.6 L686.5,62.6 L687.0,62.6 L687.6,62.6 L688.1,62.6 L688.7,62.6 L689.2,62.6 L689.8,62.6 L690.3,62.6 L690.9,62.6 L691.4,62.6 L691.9,62.6 L692.5,62.6 L693.0,62.6 L693.6,62.6 L694.1,62.6 L694.7,62.6 L695.2,62.6 L695.8,62.6 L696.3,62.6 L696.9,62.6 L697.4,62.6 L698.0,62.6 L698.5,62.6 L699.1,62.6 L699.6,62.6 L700.1,62.6 L700.7,62.6 L701.2,62.6 L701.8,62.6 L702.3,62.6 L702.9,62.6 L703.4,62.6 L704.0,62.6 L704.5,62.6 L705.1,62.6 L705.6,62.6 L706.2,62.6 L706.7,62.6 L707.3,62.6 L707.8,62.6 L708.3,62.6 L708.9,62.6 L709.4,62.6 L710.0,62.6 L710.5,62.6 L711.1,62.6 L711.6,62.6 L712.2,62.6 L712.7,62.6 L713.3,62.6 L713.8,62.6 L714.4,62.6 L714.9,62.6 L715.5,62.6 L716.0,62.6 L716.5,62.6 L717.1,62.6 L717.6,62.6 L718.2,62.6 L718.7,62.6 L719.3,62.6 L719.8,62.6 L720.4,62.6 L720.9,62.6 L721.5,62.6 L722.0,62.6 L722.6,62.6 L723.1,62.6 L723.7,62.6 L724.2,62.6 L724.7,62.6 L725.3,62.6 L725.8,62.6 L726.4,62.6 L726.9,62.6 L727.5,62.6 L728.0,62.6 L728.6,62.6 L729.1,62.6 L729.7,62.6 L730.2,62.6 L730.8,62.6 L731.3,62.6 L731.9,62.6 L732.4,62.6 L732.9,62.6 L733.5,62.6 L734.0,62.6 L734.6,62.6 L735.1,62.6 L735.7,62.6 L736.2,62.6 L736.8,62.6 L737.3,62.6 L737.9,62.6 L738.4,62.6 L739.0,62.6 L739.5,62.6 L740.1,62.6 L740.6,62.6 L741.1,62.6 L741.7,62.6 L742.2,62.6 L742.8,62.6 L743.3,62.6 L743.9,62.6 L744.4,62.6 L745.0,62.6 L745.5,62.6 L746.1,62.6 L746.6,62.6 L747.2,62.6 L747.7,62.6 L748.3,62.6 L748.8,62.6 L749.3,62.6 L749.9,62.6 L750.4,62.6 L751.0,62.6 L751.5,62.6 L752.1,62.6 L752.6,62.6 L753.2,62.6 L753.7,62.6 L754.3,62.6 L754.8,62.6 L755.4,62.6 L755.9,62.6 L756.5,62.6 L757.0,62.6 L757.5,62.6 L758.1,62.6 L758.6,62.6 L759.2,62.6 L759.7,62.6 L760.3,62.6 L760.8,62.6 L761.4,62.6 L761.9,62.6 L762.5,62.6 L763.0,62.6 L763.6,62.6 L764.1,62.6 L764.7,62.6 L765.2,62.6 L765.7,62.6 L766.3,62.6 L766.8,62.6 L767.4,62.6 L767.9,62.6 L768.5,62.6 L769.0,62.6 L769.6,62.6 L770.1,62.6 L770.7,62.6 L771.2,62.6 L771.8,62.6 L772.3,62.6 L772.9,62.6 L773.4,62.6 L773.9,62.6 L774.5,62.6 L775.0,62.6 L775.6,62.6 L776.1,62.6 L776.7,62.6 L777.2,62.6 L777.8,62.6 L778.3,62.6 L778.9,62.6 L779.4,62.6 L780.0,62.6 L780.5,62.6 L781.1,62.6 L781.6,62.6 L782.1,62.6 L782.7,62.6 L783.2,62.6 L783.8,62.6 L784.3,62.6 L784.9,62.6 L785.4,62.6 L786.0,62.6 L786.5,62.6 L787.1,62.6 L787.6,62.6 L788.2,62.6 L788.7,62.6 L789.3,62.6 L789.8,62.6 L790.3,62.6 L790.9,62.6 L791.4,62.6 L792.0,62.6 L792.5,62.6 L793.1,62.6 L793.6,62.6 L794.2,62.6 L794.7,62.6 L795.3,62.6 L795.8,62.6 L796.4,62.6 L796.9,62.6 L797.5,62.6 L798.0,62.6 L798.5,62.6 L799.1,62.6 L799.6,62.6 L800.2,62.6 L800.7,62.6 L801.3,62.6 L801.8,62.6 L802.4,62.6 L802.9,62.6 L803.5,62.6 L804.0,62.6 L804.6,62.6 L805.1,62.6 L805.7,62.6 L806.2,62.6 L806.7,62.6 L807.3,62.6 L807.8,62.6 L808.4,62.6 L808.9,62.6 L809.5,62.6 L810.0,62.6 L810.6,62.6 L811.1,62.6 L811.7,62.6 L812.2,62.6 L812.8,62.6 L813.3,62.6 L813.9,62.6 L814.4,62.6 L814.9,62.6 L815.5,62.6 L816.0,62.6 L816.6,62.6 L817.1,62.6 L817.7,62.6 L818.2,62.6 L818.8,62.6 L819.3,62.6 L819.9,62.6 L820.4,62.6 L821.0,62.6 L821.5,62.6 L822.1,62.6 L822.6,62.6 L823.1,62.6 L823.7,62.6 L824.2,62.6 L824.8,62.6 L825.3,62.6 L825.9,62.6 L826.4,62.6 L827.0,62.6 L827.5,62.6 L828.1,62.6 L828.6,62.6 L829.2,62.6 L829.7,62.6 L830.3,62.6 L830.8,62.6 L831.3,62.6 L831.9,62.6 L832.4,62.6 L833.0,62.6 L833.5,62.6 L834.1,62.6 L834.6,62.6 L835.2,62.6 L835.7,62.6 L836.3,62.6 L836.8,62.6 L837.4,62.6 L837.9,62.6 L838.5,62.6 L839.0,62.6 L839.5,62.6 L840.1,62.6 L840.6,62.6 L841.2,62.6 L841.7,62.6 L842.3,62.6 L842.8,62.6 L843.4,62.6 L843.9,62.6 L844.5,62.6 L845.0,62.6 L845.6,62.6 L846.1,62.6 L846.7,62.6 L847.2,62.6 L847.7,62.6 L848.3,62.6 L848.8,62.6 L849.4,62.6 L849.9,62.6 L850.5,62.6 L851.0,62.6 L851.6,62.6 L852.1,62.6 L852.7,62.6 L853.2,62.6 L853.8,62.6 L854.3,62.6 L854.9,62.6 L855.4,62.6 L855.9,62.6 L856.5,62.6 L857.0,62.6 L857.6,62.6 L858.1,62.6 L858.7,62.6 L859.2,62.6 L859.8,62.6 L860.3,62.6 L860.9,62.6 L861.4,62.6 L862.0,62.6 L862.5,62.6 L863.1,62.6 L863.6,62.6 L864.1,62.6 L864.7,62.6 L865.2,62.6 L865.8,62.6 L866.3,62.6 L866.9,62.6 L867.4,62.6 L868.0,62.6 L868.5,62.6 L869.1,62.6 L869.6,62.6 L870.2,62.6 L870.7,62.6 L871.3,62.6 L871.8,62.6 L872.3,62.6 L872.9,62.6 L873.4,62.6 L874.0,62.6 L874.5,62.6 L875.1,62.6 L875.6,62.6 L876.2,62.6 L876.7,62.6 L877.3,62.6 L877.8,62.6 L878.4,62.6 L878.9,62.6 L879.5,62.6 L880.0,62.6" fill="none" stroke="#b33b15" stroke-width="1" stroke-dasharray="4"/>
<text x="4" y="155" font-size="12">corner_bottom_right</text>
<path d="M60.0,160.0 L68.2,160.0 L76.4,160.0 L92.8,160.0 L125.6,160.0 L169.3,160.0 L242.0,160.0 L333.3,160.0 L497.3,160.0 L880.0,160.0" fill="none" stroke="#6750a4" stroke-width="2"/>
<path d="M60.0,160.0 L60.5,160.0 L61.1,160.0 L61.6,160.0 L62.2,395553.4 L62.7,1564185.9 L63.3,3478973.2 L63.8,6113593.8 L64.4,9442107.9 L64.9,13438575.5 L65.5,18077628.9 L66.0,23334281.7 L66.6,29183547.8 L67.1,35601203.7 L67.7,42563407.7 L68.2,50046127.1 L68.7,58026283.0 L69.3,66480987.3 L69.8,75387924.0 L70.4,84724777.0 L70.9,94469993.4 L71.5,104602210.8 L72.0,115100448.4 L72.6,125944297.6 L73.1,137113921.9 L73.7,148589294.2 L74.2,160351531.8 L74.8,172381561.1 L75.3,184661071.6 L75.9,197172134.2 L76.4,209897010.6 L76.9,222818725.4 L77.5,235920493.9 L78.0,249186103.6 L78.6,262599532.9 L79.1,276145141.4 L79.7,289808242.6 L80.2,303573768.4 L80.8,317427795.2 L81.3,331356399.3 L81.9,345346038.6 L82.4,359383743.1 L83.0,373456733.5 L83.5,387552993.6 L84.1,401660507.0 L84.6,415767829.7 L85.1,429863899.0 L85.7,443937938.5 L86.2,457979743.7 L86.8,471979205.9 L87.3,485926788.1 L87.9,499813239.8 L88.4,513629691.9 L89.0,527367656.5 L89.5,541018836.8 L90.1,554575507.9 L90.6,568030040.5 L91.2,581375377.4 L91.7,594604652.2 L92.3,607711284.4 L92.8,620688979.9 L93.3,633532016.5 L93.9,646234672.3 L94.4,658791702.1 L95.0,671197955.9 L95.5,683448856.1 L96.1,695539920.6 L96.6,707466953.1 L97.2,719226043.5 L97.7,730813472.5 L98.3,742225997.7 L98.8,753460471.9 L99.4,764513843.3 L99.9,775383632.4 L100.5,786067264.3 L101.0,796562736.3 L101.5,806867854.9 L102.1,816981094.1 L102.6,826900737.5 L103.2,836625449.9 L103.7,846154182.2 L104.3,855485885.4 L104.8,864619891.9 L105.4,873555534.1 L105.9,882292430.7 L106.5,890830295.3 L107.0,899169128.2 L107.6,907309024.6 L108.1,915250175.3 L108.7,922992961.7 L109.2,930537956.0 L109.7,937885730.5 L110.3,945037238.9 L110.8,951993244.0 L111.4,958754890.2 L111.9,965323417.4 L112.5,971699874.7 L113.0,977885883.1 L113.6,983882873.3 L114.1,989692371.2 L114.7,995316093.2 L115.2,1000755851.5 L115.8,1006013458.0 L116.3,1011090915.5 L116.9,1015990131.2 L117.4,1020713298.6 L117.9,1025262611.2 L118.5,1029640262.4 L119.0,1033848445.7 L119.6,1037889545.2 L120.1,1041766040.6 L120.7,1045480315.9 L121.2,1049034850.9 L121.8,1052432220.2 L122.3,1055674903.7 L122.9,1058765666.7 L123.4,1061707084.4 L124.0,1064501731.7 L124.5,1067152374.1 L125.1,1069661872.6 L125.6,1072032707.0 L126.1,1074267833.5 L126.7,1076369922.4 L127.2,1078341834.8 L127.8,1080186240.9 L128.3,1081906097.2 L128.9,1083504169.2 L129.4,1084983127.4 L130.0,1086345928.0 L130.5,1087595432.1 L131.1,1088734214.6 L131.6,1089765231.9 L132.2,1090691345.0 L132.7,1091515128.9 L133.3,1092239444.5 L133.8,1092867057.6 L134.3,1093400638.4 L134.9,1093843047.9 L135.4,1094196765.7 L136.0,1094464652.8 L136.5,1094649284.1 L137.1,1094753330.0 L137.6,1094779365.3 L138.2,1094730060.4 L138.7,1094607799.3 L139.3,1094415252.5 L139.8,1094154804.0 L140.4,1093829124.2 L140.9,1093440406.6 L141.5,1092991226.0 L142.0,1092483775.9 L142.5,1091920631.2 L143.1,1091303985.4 L143.6,1090636031.9 L144.2,1089919154.9 L144.7,1089155452.5 L145.3,1088347118.2 L145.8,1087496249.9 L146.4,1086605041.3 L146.9,1085675399.6 L147.5,1084709327.5 L148.0,1083708923.1 L148.6,1082676093.8 L149.1,1081612651.6 L149.7,1080520599.1 L150.2,1079401557.7 L150.7,1078257434.6 L151.3,1077089946.5 L151.8,1075900810.0 L152.4,1074691646.4 L152.9,1073464076.8 L153.5,1072219722.5 L154.0,1070960109.5 L154.6,1069686668.2 L155.1,1068400924.5 L155.7,1067104308.9 L156.2,1065798156.5 L156.8,1064483802.6 L157.3,1063162677.5 L157.9,1061835925.8 L158.4,1060504787.2 L158.9,1059170596.9 L159.5,1057834308.4 L160.0,1056497066.3 L160.6,1055160110.3 L161.1,1053824298.6 L161.7,1052490775.8 L162.2,1051160495.5 L162.8,1049834316.0 L163.3,1048513286.4 L163.9,1047198074.1 L164.4,1045889728.3 L165.0,1044588916.6 L165.5,1043296401.8 L166.1,1042013042.2 L166.6,1040739410.2 L167.1,1039476268.6 L167.7,1038224189.5 L168.2,1036983840.7 L168.8,1035755794.3 L169.3,1034540622.5 L169.9,1033338897.5 L170.4,1032151000.8 L171.0,1030977409.1 L171.5,1029818694.9 L172.1,1028675144.0 L172.6,1027547233.4 L173.2,1026435249.1 L173.7,1025339668.1 L174.3,1024260680.9 L174.8,1023198573.8 L175.3,1022153728.3 L175.9,1021126239.6 L176.4,1020116489.2 L177.0,1019124572.5 L177.5,1018150775.7 L178.1,1017195194.0 L178.6,1016257922.9 L179.2,1015339153.1 L179.7,1014439075.3 L180.3,1013557594.1 L180.8,1012694804.9 L181.4,1011850898.5 L181.9,1011025874.9 L182.5,1010219638.6 L183.0,1009432285.1 L183.5,1008663814.3 L184.1,1007914130.9 L184.6,1007183330.3 L185.2,1006471221.7 L185.7,1005777709.7 L186.3,1005102889.8 L186.8,1004446571.1 L187.4,1003808658.4 L187.9,1003188960.8 L188.5,1002587478.4 L189.0,1002004020.5 L189.6,1001438491.6 L190.1,1000890701.1 L190.7,1000360553.5 L191.2,999847667.5 L191.7,999352138.3 L192.3,998873584.5 L192.8,998411910.8 L193.4,997966926.4 L193.9,997538345.1 L194.5,997125976.3 L195.0,996729724.7 L195.6,996349208.6 L196.1,995984237.5 L196.7,995634620.4 L197.2,995300166.9 L197.8,994980495.2 L198.3,994675510.2 L198.9,994384830.3 L199.4,994108264.7 L199.9,993845622.8 L200.5,993596523.1 L201.0,993360774.8 L201.6,993138187.2 L202.1,992928378.8 L202.7,992731063.6 L203.2,992546146.2 L203.8,992373245.0 L204.3,992212074.1 L204.9,992062442.6 L205.4,991924064.4 L206.0,991796653.5 L206.5,991679923.8 L207.1,991573589.1 L207.6,991477554.1 L208.1,991391341.9 L208.7,991314761.9 L209.2,991247623.2 L209.8,991189544.5 L210.3,991140334.9 L210.9,991099803.7 L211.4,991067569.5 L212.0,991043441.6 L212.5,991027229.1 L213.1,991018550.7 L213.6,991017215.5 L214.2,991023032.9 L214.7,991035716.8 L215.3,991054981.0 L215.8,991080730.2 L216.3,991112487.6 L216.9,991150348.4 L217.4,991193740.6 L218.0,991242759.5 L218.5,991296928.2 L219.1,991356151.4 L219.6,991420238.3 L220.2,991488902.8 L220.7,991561954.3 L221.3,991639201.9 L221.8,991720550.3 L222.4,991805618.1 L222.9,991894214.4 L223.5,991986339.4 L224.0,992081706.8 L224.5,992180030.6 L225.1,992281310.8 L225.6,992385166.0 L226.2,992491691.4 L226.7,992600505.6 L227.3,992711417.9 L227.8,992824523.7 L228.4,992939346.1 L228.9,993055980.5 L229.5,993174140.7 L230.0,993293731.5 L230.6,993414657.4 L231.1,993536727.7 L231.7,993659751.7 L232.2,993783729.3 L232.7,993908374.6 L233.3,994033687.4 L233.8,994159477.0 L234.4,994285743.5 L234.9,994412200.7 L235.5,994538848.7 L236.0,994665592.0 L236.6,994792335.3 L237.1,994918887.9 L237.7,995045249.7 L238.2,995171325.5 L238.8,995296924.4 L239.3,995422046.4 L239.9,995546596.3 L240.4,995670478.6 L240.9,995793693.3 L241.5,995916049.7 L242.0,996037547.8 L242.6,996158092.3 L243.1,996277683.0 L243.7,996396129.4 L244.2,996513526.7 L244.8,996629684.2 L245.3,996744697.4 L245.9,996858375.3 L246.4,996970813.5 L247.0,997081821.2 L247.5,997191398.4 L248.1,997299545.1 L248.6,997406165.9 L249.1,997511356.1 L249.7,997614925.2 L250.2,997716968.3 L250.8,997817390.2 L251.3,997916095.5 L251.9,998013274.9 L252.4,998108642.4 L253.0,998202388.5 L253.5,998294418.1 L254.1,998384731.1 L254.6,998473327.4 L255.2,998560111.8 L255.7,998645084.2 L256.3,998728339.9 L256.8,998809879.1 L257.3,998889606.3 L257.9,998967521.5 L258.4,999043624.7 L259.0,999117915.9 L259.5,999190490.5 L260.1,999261253.1 L260.6,999330299.2 L261.2,999397437.8 L261.7,999462859.9 L262.3,999526565.3 L262.8,999588554.2 L263.4,999648731.0 L263.9,999707191.2 L264.5,999763934.9 L265.0,999818866.5 L265.5,999872272.3 L266.1,999923866.1 L266.6,999973934.0 L267.2,1000022189.9 L267.7,1000068919.9 L268.3,1000114028.7 L268.8,1000157516.3 L269.4,1000199477.9 L269.9,1000239818.4 L270.5,1000278632.9 L271.0,1000316016.9 L271.6,1000351875.1 L272.1,1000386207.4 L272.7,1000419109.1 L273.2,1000450580.4 L273.7,1000480621.1 L274.3,1000509326.7 L274.8,1000536697.2 L275.4,1000562637.1 L275.9,1000587337.3 L276.5,1000610797.7 L277.0,1000632922.9 L277.6,1000653808.4 L278.1,1000673454.1 L278.7,1000691955.3 L279.2,1000709312.2 L279.8,1000725524.7 L280.3,1000740688.1 L280.9,1000754707.1 L281.4,1000767581.7 L281.9,1000779502.7 L282.5,1000790469.9 L283.0,1000800388.1 L283.6,1000809352.7 L284.1,1000817363.5 L284.7,1000824420.7 L285.2,1000830715.0 L285.8,1000836055.5 L286.3,1000840537.8 L286.9,1000844257.1 L287.4,1000847213.5 L288.0,1000849407.0 L288.5,1000850837.5 L289.1,1000851505.1 L289.6,1000851505.1 L290.1,1000850837.5 L290.7,1000849597.7 L291.2,1000847595.0 L291.8,1000845115.4 L292.3,1000841968.3 L292.9,1000838344.4 L293.4,1000834148.2 L294.0,1000829379.8 L294.5,1000824230.0 L295.1,1000818507.9 L295.6,1000812309.0 L296.2,1000805824.1 L296.7,1000798766.9 L297.3,1000791423.6 L297.8,1000783603.5 L298.3,1000775497.2 L298.9,1000767104.9 L299.4,1000758331.1 L300.0,1000749175.8 L300.5,1000739829.8 L301.1,1000730197.7 L301.6,1000720279.5 L302.2,1000710170.5 L302.7,1000699870.8 L303.3,1000689285.1 L303.8,1000678508.5 L304.4,1000667636.7 L304.9,1000656574.0 L305.5,1000645320.7 L306.0,1000633972.0 L306.5,1000622527.9 L307.1,1000610893.0 L307.6,1000599258.2 L308.2,1000587432.6 L308.7,1000575607.1 L309.3,1000563781.5 L309.8,1000551860.6 L310.4,1000539844.3 L310.9,1000527828.0 L311.5,1000515811.7 L312.0,1000503890.8 L312.6,1000491874.5 L313.1,1000479858.2 L313.7,1000000160.0 L314.2,1000000160.0 L314.7,1000000160.0 L315.3,1000000160.0 L315.8,1000000160.0 L316.4,1000000160.0 L316.9,1000000160.0 L317.5,1000000160.0 L318.0,1000000160.0 L318.6,1000000160.0 L319.1,1000000160.0 L319.7,1000000160.0 L320.2,1000000160.0 L320.8,1000000160.0 L321.3,1000000160.0 L321.9,1000000160.0 L322.4,1000000160.0 L322.9,1000000160.0 L323.5,1000000160.0 L324.0,1000000160.0 L324.6,1000000160.0 L325.1,1000000160.0 L325.7,1000000160.0 L326.2,1000000160.0 L326.8,1000000160.0 L327.3,1000000160.0 L327.9,1000000160.0 L328.4,1000000160.0 L329.0,1000000160.0 L329.5,1000000160.0 L330.1,1000000160.0 L330.6,1000000160.0 L331.1,1000000160.0 L331.7,1000000160.0 L332.2,1000000160.0 L332.8,1000000160.0 L333.3,1000000160.0 L333.9,1000000160.0 L334.4,1000000160.0 L335.0,1000000160.0 L335.5,1000000160.0 L336.1,1000000160.0 L336.6,1000000160.0 L337.2,1000000160.0 L337.7,1000000160.0 L338.3,1000000160.0 L338.8,1000000160.0 L339.3,1000000160.0 L339.9,1000000160.0 L340.4,1000000160.0 L341.0,1000000160.0 L341.5,1000000160.0 L342.1,1000000160.0 L342.6,1000000160.0 L343.2,1000000160.0 L343.7,1000000160.0 L344.3,1000000160.0 L344.8,1000000160.0 L345.4,1000000160.0 L345.9,1000000160.0 L346.5,1000000160.0 L347.0,1000000160.0 L347.5,1000000160.0 L348.1,1000000160.0 L348.6,1000000160.0 L349.2,1000000160.0 L349.7,1000000160.0 L350.3,1000000160.0 L350.8,1000000160.0 L351.4,1000000160.0 L351.9,1000000160.0 L352.5,1000000160.0 L353.0,1000000160.0 L353.6,1000000160.0 L354.1,1000000160.0 L354.7,1000000160.0 L355.2,1000000160.0 L355.7,1000000160.0 L356.3,1000000160.0 L356.8,1000000160.0 L357.4,1000000160.0 L357.9,1000000160.0 L358.5,1000000160.0 L359.0,1000000160.0 L359.6,1000000160.0 L360.1,1000000160.0 L360.7,1000000160.0 L361.2,1000000160.0 L361.8,1000000160.0 L362.3,1000000160.0 L362.9,1000000160.0 L363.4,1000000160.0 L363.9,1000000160.0 L364.5,1000000160.0 L365.0,1000000160.0 L365.6,1000000160.0 L366.1,1000000160.0 L366.7,1000000160.0 L367.2,1000000160.0 L367.8,1000000160.0 L368.3,1000000160.0 L368.9,1000000160.0 L369.4,1000000160.0 L370.0,1000000160.0 L370.5,1000000160.0 L371.1,1000000160.0 L371.6,1000000160.0 L372.1,1000000160.0 L372.7,1000000160.0 L373.2,1000000160.0 L373.8,1000000160.0 L374.3,1000000160.0 L374.9,1000000160.0 L375.4,1000000160.0 L376.0,1000000160.0 L376.5,1000000160.0 L377.1,1000000160.0 L377.6,1000000160.0 L378.2,1000000160.0 L378.7,1000000160.0 L379.3,1000000160.0 L379.8,1000000160.0 L380.3,1000000160.0 L380.9,1000000160.0 L381.4,1000000160.0 L382.0,1000000160.0 L382.5,1000000160.0 L383.1,1000000160.0 L383.6,1000000160.0 L384.2,1000000160.0 L384.7,1000000160.0 L385.3,1000000160.0 L385.8,1000000160.0 L386.4,1000000160.0 L386.9,1000000160.0 L387.5,1000000160.0 L388.0,1000000160.0 L388.5,1000000160.0 L389.1,1000000160.0 L389.6,1000000160.0 L390.2,1000000160.0 L390.7,1000000160.0 L391.3,1000000160.0 L391.8,1000000160.0 L392.4,1000000160.0 L392.9,1000000160.0 L393.5,1000000160.0 L394.0,1000000160.0 L394.6,1000000160.0 L395.1,1000000160.0 L395.7,1000000160.0 L396.2,1000000160.0 L396.7,1000000160.0 L397.3,1000000160.0 L397.8,1000000160.0 L398.4,1000000160.0 L398.9,1000000160.0 L399.5,1000000160.0 L400.0,1000000160.0 L400.6,1000000160.0 L401.1,1000000160.0 L401.7,1000000160.0 L402.2,1000000160.0 L402.8,1000000160.0 L403.3,1000000160.0 L403.9,1000000160.0 L404.4,1000000160.0 L404.9,1000000160.0 L405.5,1000000160.0 L406.0,1000000160.0 L406.6,1000000160.0 L407.1,1000000160.0 L407.7,1000000160.0 L408.2,1000000160.0 L408.8,1000000160.0 L409.3,1000000160.0 L409.9,1000000160.0 L410.4,1000000160.0 L411.0,1000000160.0 L411.5,1000000160.0 L412.1,1000000160.0 L412.6,1000000160.0 L413.1,1000000160.0 L413.7,1000000160.0 L414.2,1000000160.0 L414.8,1000000160.0 L415.3,1000000160.0 L415.9,1000000160.0 L416.4,1000000160.0 L417.0,1000000160.0 L417.5,1000000160.0 L418.1,1000000160.0 L418.6,1000000160.0 L419.2,1000000160.0 L419.7,1000000160.0 L420.3,1000000160.0 L420.8,1000000160.0 L421.3,1000000160.0 L421.9,1000000160.0 L422.4,1000000160.0 L423.0,1000000160.0 L423.5,1000000160.0 L424.1,1000000160.0 L424.6,1000000160.0 L425.2,1000000160.0 L425.7,1000000160.0 L426.3,1000000160.0 L426.8,1000000160.0 L427.4,1000000160.0 L427.9,1000000160.0 L428.5,1000000160.0 L429.0,1000000160.0 L429.5,1000000160.0 L430.1,1000000160.0 L430.6,1000000160.0 L431.2,1000000160.0 L431.7,1000000160.0 L432.3,1000000160.0 L432.8,1000000160.0 L433.4,1000000160.0 L433.9,1000000160.0 L434.5,1000000160.0 L435.0,1000000160.0 L435.6,1000000160.0 L436.1,1000000160.0 L436.7,1000000160.0 L437.2,1000000160.0 L437.7,1000000160.0 L438.3,1000000160.0 L438.8,1000000160.0 L439.4,1000000160.0 L439.9,1000000160.0 L440.5,1000000160.0 L441.0,1000000160.0 L441.6,1000000160.0 L442.1,1000000160.0 L442.7,1000000160.0 L443.2,1000000160.0 L443.8,1000000160.0 L444.3,1000000160.0 L444.9,1000000160.0 L445.4,1000000160.0 L445.9,1000000160.0 L446.5,1000000160.0 L447.0,1000000160.0 L447.6,1000000160.0 L448.1,1000000160.0 L448.7,1000000160.0 L449.2,1000000160.0 L449.8,1000000160.0 L450.3,1000000160.0 L450.9,1000000160.0 L451.4,1000000160.0 L452.0,1000000160.0 L452.5,1000000160.0 L453.1,1000000160.0 L453.6,1000000160.0 L454.1,1000000160.0 L454.7,1000000160.0 L455.2,1000000160.0 L455.8,1000000160.0 L456.3,1000000160.0 L456.9,1000000160.0 L457.4,1000000160.0 L458.0,1000000160.0 L458.5,1000000160.0 L459.1,1000000160.0 L459.6,1000000160.0 L460.2,1000000160.0 L460.7,1000000160.0 L461.3,1000000160.0 L461.8,1000000160.0 L462.3,1000000160.0 L462.9,1000000160.0 L463.4,1000000160.0 L464.0,1000000160.0 L464.5,1000000160.0 L465.1,1000000160.0 L465.6,1000000160.0 L466.2,1000000160.0 L466.7,1000000160.0 L467.3,1000000160.0 L467.8,1000000160.0 L468.4,1000000160.0 L468.9,1000000160.0 L469.5,1000000160.0 L470.0,1000000160.0 L470.5,1000000160.0 L471.1,1000000160.0 L471.6,1000000160.0 L472.2,1000000160.0 L472.7,1000000160.0 L473.3,1000000160.0 L473.8,1000000160.0 L474.4,1000000160.0 L474.9,1000000160.0 L475.5,1000000160.0 L476.0,1000000160.0 L476.6,1000000160.0 L477.1,1000000160.0 L477.7,1000000160.0 L478.2,1000000160.0 L478.7,1000000160.0 L479.3,1000000160.0 L479.8,1000000160.0 L480.4,1000000160.0 L480.9,1000000160.0 L481.5,1000000160.0 L482.0,1000000160.0 L482.6,1000000160.0 L483.1,1000000160.0 L483.7,1000000160.0 L484.2,1000000160.0 L484.8,1000000160.0 L485.3,1000000160.0 L485.9,1000000160.0 L486.4,1000000160.0 L486.9,1000000160.0 L487.5,1000000160.0 L488.0,1000000160.0 L488.6,1000000160.0 L489.1,1000000160.0 L489.7,1000000160.0 L490.2,1000000160.0 L490.8,1000000160.0 L491.3,1000000160.0 L491.9,1000000160.0 L492.4,1000000160.0 L493.0,1000000160.0 L493.5,1000000160.0 L494.1,1000000160.0 L494.6,1000000160.0 L495.1,1000000160.0 L495.7,1000000160.0 L496.2,1000000160.0 L496.8,1000000160.0 L497.3,1000000160.0 L497.9,1000000160.0 L498.4,1000000160.0 L499.0,1000000160.0 L499.5,1000000160.0 L500.1,1000000160.0 L500.6,1000000160.0 L501.2,1000000160.0 L501.7,1000000160.0 L502.3,1000000160.0 L502.8,1000000160.0 L503.3,1000000160.0 L503.9,1000000160.0 L504.4,1000000160.0 L505.0,1000000160.0 L505.5,1000000160.0 L506.1,1000000160.0 L506.6,1000000160.0 L507.2,1000000160.0 L507.7,1000000160.0 L508.3,1000000160.0 L508.8,1000000160.0 L509.4,1000000160.0 L509.9,1000000160.0 L510.5,1000000160.0 L511.0,1000000160.0 L511.5,1000000160.0 L512.1,1000000160.0 L512.6,1000000160.0 L513.2,1000000160.0 L513.7,1000000160.0 L514.3,1000000160.0 L514.8,1000000160.0 L515.4,1000000160.0 L515.9,1000000160.0 L516.5,1000000160.0 L517.0,1000000160.0 L517.6,1000000160.0 L518.1,1000000160.0 L518.7,1000000160.0 L519.2,1000000160.0 L519.7,1000000160.0 L520.3,1000000160.0 L520.8,1000000160.0 L521.4,1000000160.0 L521.9,1000000160.0 L522.5,1000000160.0 L523.0,1000000160.0 L523.6,1000000160.0 L524.1,1000000160.0 L524.7,1000000160.0 L525.2,1000000160.0 L525.8,1000000160.0 L526.3,1000000160.0 L526.9,1000000160.0 L527.4,1000000160.0 L527.9,1000000160.0 L528.5,1000000160.0 L529.0,1000000160.0 L529.6,1000000160.0 L530.1,1000000160.0 L530.7,1000000160.0 L531.2,1000000160.0 L531.8,1000000160.0 L532.3,1000000160.0 L532.9,1000000160.0 L533.4,1000000160.0 L534.0,1000000160.0 L534.5,1000000160.0 L535.1,1000000160.0 L535.6,1000000160.0 L536.1,1000000160.0 L536.7,1000000160.0 L537.2,1000000160.0 L537.8,1000000160.0 L538.3,1000000160.0 L538.9,1000000160.0 L539.4,1000000160.0 L540.0,1000000160.0 L540.5,1000000160.0 L541.1,1000000160.0 L541.6,1000000160.0 L542.2,1000000160.0 L542.7,1000000160.0 L543.3,1000000160.0 L543.8,1000000160.0 L544.3,1000000160.0 L544.9,1000000160.0 L545.4,1000000160.0 L546.0,1000000160.0 L546.5,1000000160.0 L547.1,1000000160.0 L547.6,1000000160.0 L548.2,1000000160.0 L548.7,1000000160.0 L549.3,1000000160.0 L549.8,1000000160.0 L550.4,1000000160.0 L550.9,1000000160.0 L551.5,1000000160.0 L552.0,1000000160.0 L552.5,1000000160.0 L553.1,1000000160.0 L553.6,1000000160.0 L554.2,1000000160.0 L554.7,1000000160.0 L555.3,1000000160.0 L555.8,1000000160.0 L556.4,1000000160.0 L556.9,1000000160.0 L557.5,1000000160.0 L558.0,1000000160.0 L558.6,1000000160.0 L559.1,1000000160.0 L559.7,1000000160.0 L560.2,1000000160.0 L560.7,1000000160.0 L561.3,1000000160.0 L561.8,1000000160.0 L562.4,1000000160.0 L562.9,1000000160.0 L563.5,1000000160.0 L564.0,1000000160.0 L564.6,1000000160.0 L565.1,1000000160.0 L565.7,1000000160.0 L566.2,1000000160.0 L566.8,1000000160.0 L567.3,1000000160.0 L567.9,1000000160.0 L568.4,1000000160.0 L568.9,1000000160.0 L569.5,1000000160.0 L570.0,1000000160.0 L570.6,1000000160.0 L571.1,1000000160.0 L571.7,1000000160.0 L572.2,1000000160.0 L572.8,1000000160.0 L573.3,1000000160.0 L573.9,1000000160.0 L574.4,1000000160.0 L575.0,1000000160.0 L575.5,1000000160.0 L576.1,1000000160.0 L576.6,1000000160.0 L577.1,1000000160.0 L577.7,1000000160.0 L578.2,1000000160.0 L578.8,1000000160.0 L579.3,1000000160.0 L579.9,1000000160.0 L580.4,1000000160.0 L581.0,1000000160.0 L581.5,1000000160.0 L582.1,1000000160.0 L582.6,1000000160.0 L583.2,1000000160.0 L583.7,1000000160.0 L584.3,1000000160.0 L584.8,1000000160.0 L585.3,1000000160.0 L585.9,1000000160.0 L586.4,1000000160.0 L587.0,1000000160.0 L587.5,1000000160.0 L588.1,1000000160.0 L588.6,1000000160.0 L589.2,1000000160.0 L589.7,1000000160.0 L590.3,1000000160.0 L590.8,1000000160.0 L591.4,1000000160.0 L591.9,1000000160.0 L592.5,1000000160.0 L593.0,1000000160.0 L593.5,1000000160.0 L594.1,1000000160.0 L594.6,1000000160.0 L595.2,1000000160.0 L595.7,1000000160.0 L596.3,1000000160.0 L596.8,1000000160.0 L597.4,1000000160.0 L597.9,1000000160.0 L598.5,1000000160.0 L599.0,1000000160.0 L599.6,1000000160.0 L600.1,1000000160.0 L600.7,1000000160.0 L601.2,1000000160.0 L601.7,1000000160.0 L602.3,1000000160.0 L602.8,1000000160.0 L603.4,1000000160.0 L603.9,1000000160.0 L604.5,1000000160.0 L605.0,1000000160.0 L605.6,1000000160.0 L606.1,1000000160.0 L606.7,1000000160.0 L607.2,1000000160.0 L607.8,1000000160.0 L608.3,1000000160.0 L608.9,1000000160.0 L609.4,1000000160.0 L609.9,1000000160.0 L610.5,1000000160.0 L611.0,1000000160.0 L611.6,1000000160.0 L612.1,1000000160.0 L612.7,1000000160.0 L613.2,1000000160.0 L613.8,1000000160.0 L614.3,1000000160.0 L614.9,1000000160.0 L615.4,1000000160.0 L616.0,1000000160.0 L616.5,1000000160.0 L617.1,1000000160.0 L617.6,1000000160.0 L618.1,1000000160.0 L618.7,1000000160.0 L619.2,1000000160.0 L619.8,1000000160.0 L620.3,1000000160.0 L620.9,1000000160.0 L621.4,1000000160.0 L622.0,1000000160.0 L622.5,1000000160.0 L623.1,1000000160.0 L623.6,1000000160.0 L624.2,1000000160.0 L624.7,1000000160.0 L625.3,1000000160.0 L625.8,1000000160.0 L626.3,1000000160.0 L626.9,1000000160.0 L627.4,1000000160.0 L628.0,1000000160.0 L628.5,1000000160.0 L629.1,1000000160.0 L629.6,1000000160.0 L630.2,1000000160.0 L630.7,1000000160.0 L631.3,1000000160.0 L631.8,1000000160.0 L632.4,1000000160.0 L632.9,1000000160.0 L633.5,1000000160.0 L634.0,1000000160.0 L634.5,1000000160.0 L635.1,1000000160.0 L635.6,1000000160.0 L636.2,1000000160.0 L636.7,1000000160.0 L637.3,1000000160.0 L637.8,1000000160.0 L638.4,1000000160.0 L638.9,1000000160.0 L639.5,1000000160.0 L640.0,1000000160.0 L640.6,1000000160.0 L641.1,1000000160.0 L641.7,1000000160.0 L642.2,1000000160.0 L642.7,1000000160.0 L643.3,1000000160.0 L643.8,1000000160.0 L644.4,1000000160.0 L644.9,1000000160.0 L645.5,1000000160.0 L646.0,1000000160.0 L646.6,1000000160.0 L647.1,1000000160.0 L647.7,1000000160.0 L648.2,1000000160.0 L648.8,1000000160.0 L649.3,1000000160.0 L649.9,1000000160.0 L650.4,1000000160.0 L650.9,1000000160.0 L651.5,1000000160.0 L652.0,1000000160.0 L652.6,1000000160.0 L653.1,1000000160.0 L653.7,1000000160.0 L654.2,1000000160.0 L654.8,1000000160.0 L655.3,1000000160.0 L655.9,1000000160.0 L656.4,1000000160.0 L657.0,1000000160.0 L657.5,1000000160.0 L658.1,1000000160.0 L658.6,1000000160.0 L659.1,1000000160.0 L659.7,1000000160.0 L660.2,1000000160.0 L660.8,1000000160.0 L661.3,1000000160.0 L661.9,1000000160.0 L662.4,1000000160.0 L663.0,1000000160.0 L663.5,1000000160.0 L664.1,1000000160.0 L664.6,1000000160.0 L665.2,1000000160.0 L665.7,1000000160.0 L666.3,1000000160.0 L666.8,1000000160.0 L667.3,1000000160.0 L667.9,1000000160.0 L668.4,1000000160.0 L669.0,1000000160.0 L669.5,1000000160.0 L670.1,1000000160.0 L670.6,1000000160.0 L671.2,1000000160.0 L671.7,1000000160.0 L672.3,1000000160.0 L672.8,1000000160.0 L673.4,1000000160.0 L673.9,1000000160.0 L674.5,1000000160.0 L675.0,1000000160.0 L675.5,1000000160.0 L676.1,1000000160.0 L676.6,1000000160.0 L677.2,1000000160.0 L677.7,1000000160.0 L678.3,1000000160.0 L678.8,1000000160.0 L679.4,1000000160.0 L679.9,1000000160.0 L680.5,1000000160.0 L681.0,1000000160.0 L681.6,1000000160.0 L682.1,1000000160.0 L682.7,1000000160.0 L683.2,1000000160.0 L683.7,1000000160.0 L684.3,1000000160.0 L684.8,1000000160.0 L685.4,1000000160.0 L685.9,1000000160.0 L686.5,1000000160.0 L687.0,1000000160.0 L687.6,1000000160.0 L688.1,1000000160.0 L688.7,1000000160.0 L689.2,1000000160.0 L689.8,1000000160.0 L690.3,1000000160.0 L690.9,1000000160.0 L691.4,1000000160.0 L691.9,1000000160.0 L692.5,1000000160.0 L693.0,1000000160.0 L693.6,1000000160.0 L694.1,1000000160.0 L694.7,1000000160.0 L695.2,1000000160.0 L695.8,1000000160.0 L696.3,1000000160.0 L696.9,1000000160.0 L697.4,1000000160.0 L698.0,1000000160.0 L698.5,1000000160.0 L699.1,1000000160.0 L699.6,1000000160.0 L700.1,1000000160.0 L700.7,1000000160.0 L701.2,1000000160.0 L701.8,1000000160.0 L702.3,1000000160.0 L702.9,1000000160.0 L703.4,1000000160.0 L704.0,1000000160.0 L704.5,1000000160.0 L705.1,1000000160.0 L705.6,1000000160.0 L706.2,1000000160.0 L706.7,1000000160.0 L707.3,1000000160.0 L707.8,1000000160.0 L708.3,1000000160.0 L708.9,1000000160.0 L709.4,1000000160.0 L710.0,1000000160.0 L710.5,1000000160.0 L711.1,1000000160.0 L711.6,1000000160.0 L712.2,1000000160.0 L712.7,1000000160.0 L713.3,1000000160.0 L713.8,1000000160.0 L714.4,1000000160.0 L714.9,1000000160.0 L715.5,1000000160.0 L716.0,1000000160.0 L716.5,1000000160.0 L717.1,1000000160.0 L717.6,1000000160.0 L718.2,1000000160.0 L718.7,1000000160.0 L719.3,1000000160.0 L719.8,1000000160.0 L720.4,1000000160.0 L720.9,1000000160.0 L721.5,1000000160.0 L722.0,1000000160.0 L722.6,1000000160.0 L723.1,1000000160.0 L723.7,1000000160.0 L724.2,1000000160.0 L724.7,1000000160.0 L725.3,1000000160.0 L725.8,1000000160.0 L726.4,1000000160.0 L726.9,1000000160.0 L727.5,1000000160.0 L728.0,1000000160.0 L728.6,1000000160.0 L729.1,1000000160.0 L729.7,1000000160.0 L730.2,1000000160.0 L730.8,1000000160.0 L731.3,1000000160.0 L731.9,1000000160.0 L732.4,1000000160.0 L732.9,1000000160.0 L733.5,1000000160.0 L734.0,1000000160.0 L734.6,1000000160.0 L735.1,1000000160.0 L735.7,1000000160.0 L736.2,1000000160.0 L736.8,1000000160.0 L737.3,1000000160.0 L737.9,1000000160.0 L738.4,1000000160.0 L739.0,1000000160.0 L739.5,1000000160.0 L740.1,1000000160.0 L740.6,1000000160.0 L741.1,1000000160.0 L741.7,1000000160.0 L742.2,1000000160.0 L742.8,1000000160.0 L743.3,1000000160.0 L743.9,1000000160.0 L744.4,1000000160.0 L745.0,1000000160.0 L745.5,1000000160.0 L746.1,1000000160.0 L746.6,1000000160.0 L747.2,1000000160.0 L747.7,1000000160.0 L748.3,1000000160.0 L748.8,1000000160.0 L749.3,1000000160.0 L749.9,1000000160.0 L750.4,1000000160.0 L751.0,1000000160.0 L751.5,1000000160.0 L752.1,1000000160.0 L752.6,1000000160.0 L753.2,1000000160.0 L753.7,1000000160.0 L754.3,1000000160.0 L754.8,1000000160.0 L755.4,1000000160.0 L755.9,1000000160.0 L756.5,1000000160.0 L757.0,1000000160.0 L757.5,1000000160.0 L758.1,1000000160.0 L758.6,1000000160.0 L759.2,1000000160.0 L759.7,1000000160.0 L760.3,1000000160.0 L760.8,1000000160.0 L761.4,1000000160.0 L761.9,1000000160.0 L762.5,1000000160.0 L763.0,1000000160.0 L763.6,1000000160.0 L764.1,1000000160.0 L764.7,1000000160.0 L765.2,1000000160.0 L765.7,1000000160.0 L766.3,1000000160.0 L766.8,1000000160.0 L767.4,1000000160.0 L767.9,1000000160.0 L768.5,1000000160.0 L769.0,1000000160.0 L769.6,1000000160.0 L770.1,1000000160.0 L770.7,1000000160.0 L771.2,1000000160.0 L771.8,1000000160.0 L772.3,1000000160.0 L772.9,1000000160.0 L773.4,1000000160.0 L773.9,1000000160.0 L774.5,1000000160.0 L775.0,1000000160.0 L775.6,1000000160.0 L776.1,1000000160.0 L776.7,1000000160.0 L777.2,1000000160.0 L777.8,1000000160.0 L778.3,1000000160.0 L778.9,1000000160.0 L779.4,1000000160.0 L780.0,1000000160.0 L780.5,1000000160.0 L781.1,1000000160.0 L781.6,1000000160.0 L782.1,1000000160.0 L782.7,1000000160.0 L783.2,1000000160.0 L783.8,1000000160.0 L784.3,1000000160.0 L784.9,1000000160.0 L785.4,1000000160.0 L786.0,1000000160.0 L786.5,1000000160.0 L787.1,1000000160.0 L787.6,1000000160.0 L788.2,1000000160.0 L788.7,1000000160.0 L789.3,1000000160.0 L789.8,1000000160.0 L790.3,1000000160.0 L790.9,1000000160.0 L791.4,1000000160.0 L792.0,1000000160.0 L792.5,1000000160.0 L793.1,1000000160.0 L793.6,1000000160.0 L794.2,1000000160.0 L794.7,1000000160.0 L795.3,1000000160.0 L795.8,1000000160.0 L796.4,1000000160.0 L796.9,1000000160.0 L797.5,1000000160.0 L798.0,1000000160.0 L798.5,1000000160.0 L799.1,1000000160.0 L799.6,1000000160.0 L800.2,1000000160.0 L800.7,1000000160.0 L801.3,1000000160.0 L801.8,1000000160.0 L802.4,1000000160.0 L802.9,1000000160.0 L803.5,1000000160.0 L804.0,1000000160.0 L804.6,1000000160.0 L805.1,1000000160.0 L805.7,1000000160.0 L806.2,1000000160.0 L806.7,1000000160.0 L807.3,1000000160.0 L807.8,1000000160.0 L808.4,1000000160.0 L808.9,1000000160.0 L809.5,1000000160.0 L810.0,1000000160.0 L810.6,1000000160.0 L811.1,1000000160.0 L811.7,1000000160.0 L812.2,1000000160.0 L812.8,1000000160.0 L813.3,1000000160.0 L813.9,1000000160.0 L814.4,1000000160.0 L814.9,1000000160.0 L815.5,1000000160.0 L816.0,1000000160.0 L816.6,1000000160.0 L817.1,1000000160.0 L817.7,1000000160.0 L818.2,1000000160.0 L818.8,1000000160.0 L819.3,1000000160.0 L819.9,1000000160.0 L820.4,1000000160.0 L821.0,1000000160.0 L821.5,1000000160.0 L822.1,1000000160.0 L822.6,1000000160.0 L823.1,1000000160.0 L823.7,1000000160.0 L824.2,1000000160.0 L824.8,1000000160.0 L825.3,1000000160.0 L825.9,1000000160.0 L826.4,1000000160.0 L827.0,1000000160.0 L827.5,1000000160.0 L828.1,1000000160.0 L828.6,1000000160.0 L829.2,1000000160.0 L829.7,1000000160.0 L830.3,1000000160.0 L830.8,1000000160.0 L831.3,1000000160.0 L831.9,1000000160.0 L832.4,1000000160.0 L833.0,1000000160.0 L833.5,1000000160.0 L834.1,1000000160.0 L834.6,1000000160.0 L835.2,1000000160.0 L835.7,1000000160.0 L836.3,1000000160.0 L836.8,1000000160.0 L837.4,1000000160.0 L837.9,1000000160.0 L838.5,1000000160.0 L839.0,1000000160.0 L839.5,1000000160.0 L840.1,1000000160.0 L840.6,1000000160.0 L841.2,1000000160.0 L841.7,1000000160.0 L842.3,1000000160.0 L842.8,1000000160.0 L843.4,1000000160.0 L843.9,1000000160.0 L844.5,1000000160.0 L845.0,1000000160.0 L845.6,1000000160.0 L846.1,1000000160.0 L846.7,1000000160.0 L847.2,1000000160.0 L847.7,1000000160.0 L848.3,1000000160.0 L848.8,1000000160.0 L849.4,1000000160.0 L849.9,1000000160.0 L850.5,1000000160.0 L851.0,1000000160.0 L851.6,1000000160.0 L852.1,1000000160.0 L852.7,1000000160.0 L853.2,1000000160.0 L853.8,1000000160.0 L854.3,1000000160.0 L854.9,1000000160.0 L855.4,1000000160.0 L855.9,1000000160.0 L856.5,1000000160.0 L857.0,1000000160.0 L857.6,1000000160.0 L858.1,1000000160.0 L858.7,1000000160.0 L859.2,1000000160.0 L859.8,1000000160.0 L860.3,1000000160.0 L860.9,1000000160.0 L861.4,1000000160.0 L862.0,1000000160.0 L862.5,1000000160.0 L863.1,1000000160.0 L863.6,1000000160.0 L864.1,1000000160.0 L864.7,1000000160.0 L865.2,1000000160.0 L865.8,1000000160.0 L866.3,1000000160.0 L866.9,1000000160.0 L867.4,1000000160.0 L868.0,1000000160.0 L868.5,1000000160.0 L869.1,1000000160.0 L869.6,1000000160.0 L870.2,1000000160.0 L870.7,1000000160.0 L871.3,1000000160.0 L871.8,1000000160.0 L872.3,1000000160.0 L872.9,1000000160.0 L873.4,1000000160.0 L874.0,1000000160.0 L874.5,1000000160.0 L875.1,1000000160.0 L875.6,1000000160.0 L876.2,1000000160.0 L876.7,1000000160.0 L877.3,1000000160.0 L877.8,1000000160.0 L878.4,1000000160.0 L878.9,1000000160.0 L879.5,1000000160.0 L880.0,1000000160.0" fill="none" stroke="#b33b15" stroke-width="1" stroke-dasharray="4"/>
<text x="4" y="235" font-size="12">corner_top_left</text>
<path d="M60.0,240.0 L68.2,236.5 L76.4,228.4 L92.8,209.5 L125.6,190.0 L169.3,192.2 L242.0,193.8 L333.3,193.6 L497.3,193.6 L880.0,193.6" fill="none" stroke="#6750a4" stroke-width="2"/>
<path d="M60.0,240.0 L60.5,240.0 L61.1,240.0 L61.6,240.0 L62.2,240.0 L62.7,240.0 L63.3,239.9 L63.8,239.9 L64.4,239.8 L64.9,239.8 L65.5,239.7 L66.0,239.6 L66.6,239.5 L67.1,239.4 L67.7,239.3 L68.2,239.1 L68.7,239.0 L69.3,238.8 L69.8,238.7 L70.4,238.5 L70.9,238.4 L71.5,238.2 L72.0,238.0 L72.6,237.8 L73.1,237.6 L73.7,237.4 L74.2,237.2 L74.8,237.0 L75.3,236.8 L75.9,236.6 L76.4,236.4 L76.9,236.1 L77.5,235.9 L78.0,235.7 L78.6,235.4 L79.1,235.2 L79.7,235.0 L80.2,234.7 L80.8,234.5 L81.3,234.2 L81.9,234.0 L82.4,233.8 L83.0,233.5 L83.5,233.3 L84.1,233.0 L84.6,232.8 L85.1,232.5 L85.7,232.3 L86.2,232.0 L86.8,231.8 L87.3,231.6 L87.9,231.3 L88.4,231.1 L89.0,230.8 L89.5,230.6 L90.1,230.4 L90.6,230.1 L91.2,229.9 L91.7,229.7 L92.3,229.4 L92.8,229.2 L93.3,229.0 L93.9,228.8 L94.4,228.5 L95.0,228.3 L95.5,228.1 L96.1,227.9 L96.6,227.7 L97.2,227.5 L97.7,227.3 L98.3,227.1 L98.8,226.9 L99.4,226.7 L99.9,226.5 L100.5,226.3 L101.0,226.1 L101.5,226.0 L102.1,225.8 L102.6,225.6 L103.2,225.5 L103.7,225.3 L104.3,225.1 L104.8,225.0 L105.4,224.8 L105.9,224.7 L106.5,224.5 L107.0,224.4 L107.6,224.2 L108.1,224.1 L108.7,224.0 L109.2,223.8 L109.7,223.7 L110.3,223.6 L110.8,223.4 L111.4,223.3 L111.9,223.2 L112.5,223.1 L113.0,223.0 L113.6,222.9 L114.1,222.8 L114.7,222.7 L115.2,222.6 L115.8,222.5 L116.3,222.4 L116.9,222.3 L117.4,222.3 L117.9,222.2 L118.5,222.1 L119.0,222.0 L119.6,222.0 L120.1,221.9 L120.7,221.8 L121.2,221.8 L121.8,221.7 L122.3,221.6 L122.9,221.6 L123.4,221.5 L124.0,221.5 L124.5,221.4 L125.1,221.4 L125.6,221.4 L126.1,221.3 L126.7,221.3 L127.2,221.2 L127.8,221.2 L128.3,221.2 L128.9,221.2 L129.4,221.1 L130.0,221.1 L130.5,221.1 L131.1,221.1 L131.6,221.1 L132.2,221.0 L132.7,221.0 L133.3,221.0 L133.8,221.0 L134.3,221.0 L134.9,221.0 L135.4,221.0 L136.0,221.0 L136.5,221.0 L137.1,221.0 L137.6,221.0 L138.2,221.0 L138.7,221.0 L139.3,221.0 L139.8,221.0 L140.4,221.0 L140.9,221.0 L141.5,221.0 L142.0,221.0 L142.5,221.0 L143.1,221.0 L143.6,221.0 L144.2,221.0 L144.7,221.1 L145.3,221.1 L145.8,221.1 L146.4,221.1 L146.9,221.1 L147.5,221.1 L148.0,221.2 L148.6,221.2 L149.1,221.2 L149.7,221.2 L150.2,221.2 L150.7,221.3 L151.3,221.3 L151.8,221.3 L152.4,221.3 L152.9,221.3 L153.5,221.4 L154.0,221.4 L154.6,221.4 L155.1,221.4 L155.7,221.4 L156.2,221.5 L156.8,221.5 L157.3,221.5 L157.9,221.5 L158.4,221.6 L158.9,221.6 L159.5,221.6 L160.0,221.6 L160.6,221.7 L161.1,221.7 L161.7,221.7 L162.2,221.7 L162.8,221.7 L163.3,221.8 L163.9,221.8 L164.4,221.8 L165.0,221.8 L165.5,221.9 L166.1,221.9 L166.6,221.9 L167.1,221.9 L167.7,221.9 L168.2,222.0 L168.8,222.0 L169.3,222.0 L169.9,222.0 L170.4,222.1 L171.0,222.1 L171.5,222.1 L172.1,222.1 L172.6,222.1 L173.2,222.2 L173.7,222.2 L174.3,222.2 L174.8,222.2 L175.3,222.2 L175.9,222.2 L176.4,222.3 L177.0,222.3 L177.5,222.3 L178.1,222.3 L178.6,222.3 L179.2,222.3 L179.7,222.4 L180.3,222.4 L180.8,222.4 L181.4,222.4 L181.9,222.4 L182.5,222.4 L183.0,222.4 L183.5,222.5 L184.1,222.5 L184.6,222.5 L185.2,222.5 L185.7,222.5 L186.3,222.5 L186.8,222.5 L187.4,222.5 L187.9,222.6 L188.5,222.6 L189.0,222.6 L189.6,222.6 L190.1,222.6 L190.7,222.6 L191.2,222.6 L191.7,222.6 L192.3,222.6 L192.8,222.6 L193.4,222.6 L193.9,222.7 L194.5,222.7 L195.0,222.7 L195.6,222.7 L196.1,222.7 L196.7,222.7 L197.2,222.7 L197.8,222.7 L198.3,222.7 L198.9,222.7 L199.4,222.7 L199.9,222.7 L200.5,222.7 L201.0,222.7 L201.6,222.7 L202.1,222.7 L202.7,222.7 L203.2,222.7 L203.8,222.7 L204.3,222.7 L204.9,222.8 L205.4,222.8 L206.0,222.8 L206.5,222.8 L207.1,222.8 L207.6,222.8 L208.1,222.8 L208.7,222.8 L209.2,222.8 L209.8,222.8 L210.3,222.8 L210.9,222.8 L211.4,222.8 L212.0,222.8 L212.5,222.8 L213.1,222.8 L213.6,222.8 L214.2,222.8 L214.7,222.8 L215.3,222.8 L215.8,222.8 L216.3,222.8 L216.9,222.8 L217.4,222.8 L218.0,222.8 L218.5,222.8 L219.1,222.8 L219.6,222.8 L220.2,222.8 L220.7,222.8 L221.3,222.8 L221.8,222.8 L222.4,222.8 L222.9,222.8 L223.5,222.8 L224.0,222.7 L224.5,222.7 L225.1,222.7 L225.6,222.7 L226.2,222.7 L226.7,222.7 L227.3,222.7 L227.8,222.7 L228.4,222.7 L228.9,222.7 L229.5,222.7 L230.0,222.7 L230.6,222.7 L231.1,222.7 L231.7,222.7 L232.2,222.7 L232.7,222.7 L233.3,222.7 L233.8,222.7 L234.4,222.7 L234.9,222.7 L235.5,222.7 L236.0,222.7 L236.6,222.7 L237.1,222.7 L237.7,222.7 L238.2,222.7 L238.8,222.7 L239.3,222.7 L239.9,222.7 L240.4,222.7 L240.9,222.7 L241.5,222.7 L242.0,222.7 L242.6,222.7 L243.1,222.7 L243.7,222.7 L244.2,222.7 L244.8,222.7 L245.3,222.7 L245.9,222.7 L246.4,222.7 L247.0,222.7 L247.5,222.7 L248.1,222.7 L248.6,222.7 L249.1,222.7 L249.7,222.7 L250.2,222.7 L250.8,222.7 L251.3,222.6 L251.9,222.6 L252.4,222.6 L253.0,222.6 L253.5,222.6 L254.1,222.6 L254.6,222.6 L255.2,222.6 L255.7,222.6 L256.3,222.6 L256.8,222.6 L257.3,222.6 L257.9,222.6 L258.4,222.6 L259.0,222.6 L259.5,222.6 L260.1,222.6 L260.6,222.6 L261.2,222.6 L261.7,222.6 L262.3,222.6 L262.8,222.6 L263.4,222.6 L263.9,222.6 L264.5,222.6 L265.0,222.6 L265.5,222.6 L266.1,222.6 L266.6,222.6 L267.2,222.6 L267.7,222.6 L268.3,222.6 L268.8,222.6 L269.4,222.6 L269.9,222.6 L270.5,222.6 L271.0,222.6 L271.6,222.6 L272.1,222.6 L272.7,222.6 L273.2,222.6 L273.7,222.6 L274.3,222.6 L274.8,222.6 L275.4,222.6 L275.9,222.6 L276.5,222.6 L277.0,222.6 L277.6,222.6 L278.1,222.6 L278.7,222.6 L279.2,222.6 L279.8,222.6 L280.3,222.6 L280.9,222.6 L281.4,222.6 L281.9,222.6 L282.5,222.6 L283.0,222.6 L283.6,222.6 L284.1,222.6 L284.7,222.6 L285.2,222.6 L285.8,222.6 L286.3,222.6 L286.9,222.6 L287.4,222.6 L288.0,222.6 L288.5,222.6 L289.1,222.6 L289.6,222.6 L290.1,222.6 L290.7,222.6 L291.2,222.6 L291.8,222.6 L292.3,222.6 L292.9,222.6 L293.4,222.6 L294.0,222.6 L294.5,222.6 L295.1,222.6 L295.6,222.6 L296.2,222.6 L296.7,222.6 L297.3,222.6 L297.8,222.6 L298.3,222.6 L298.9,222.6 L299.4,222.6 L300.0,222.6 L300.5,222.6 L301.1,222.6 L301.6,222.6 L302.2,222.6 L302.7,222.6 L303.3,222.6 L303.8,222.6 L304.4,222.6 L304.9,222.6 L305.5,222.6 L306.0,222.6 L306.5,222.6 L307.1,222.6 L307.6,222.6 L308.2,222.6 L308.7,222.6 L309.3,222.6 L309.8,222.6 L310.4,222.6 L310.9,222.6 L311.5,222.6 L312.0,222.6 L312.6,222.6 L313.1,222.6 L313.7,222.6 L314.2,222.6 L314.7,222.6 L315.3,222.6 L315.8,222.6 L316.4,222.6 L316.9,222.6 L317.5,222.6 L318.0,222.6 L318.6,222.6 L319.1,222.6 L319.7,222.6 L320.2,222.6 L320.8,222.6 L321.3,222.6 L321.9,222.6 L322.4,222.6 L322.9,222.6 L323.5,222.6 L324.0,222.6 L324.6,222.6 L325.1,222.6 L325.7,222.6 L326.2,222.6 L326.8,222.6 L327.3,222.6 L327.9,222.6 L328.4,222.6 L329.0,222.6 L329.5,222.6 L330.1,222.6 L330.6,222.6 L331.1,222.6 L331.7,222.6 L332.2,222.6 L332.8,222.6 L333.3,222.6 L333.9,222.6 L334.4,222.6 L335.0,222.6 L335.5,222.6 L336.1,222.6 L336.6,222.6 L337.2,222.6 L337.7,222.6 L338.3,222.6 L338.8,222.6 L339.3,222.6 L339.9,222.6 L340.4,222.6 L341.0,222.6 L341.5,222.6 L342.1,222.6 L342.6,222.6 L343.2,222.6 L343.7,222.6 L344.3,222.6 L344.8,222.6 L345.4,222.6 L345.9,222.6 L346.5,222.6 L347.0,222.6 L347.5,222.6 L348.1,222.6 L348.6,222.6 L349.2,222.6 L349.7,222.6 L350.3,222.6 L350.8,222.6 L351.4,222.6 L351.9,222.6 L352.5,222.6 L353.0,222.6 L353.6,222.6 L354.1,222.6 L354.7,222.6 L355.2,222.6 L355.7,222.6 L356.3,222.6 L356.8,222.6 L357.4,222.6 L357.9,222.6 L358.5,222.6 L359.0,222.6 L359.6,222.6 L360.1,222.6 L360.7,222.6 L361.2,222.6 L361.8,222.6 L362.3,222.6 L362.9,222.6 L363.4,222.6 L363.9,222.6 L364.5,222.6 L365.0,222.6 L365.6,222.6 L366.1,222.6 L366.7,222.6 L367.2,222.6 L367.8,222.6 L368.3,222.6 L368.9,222.6 L369.4,222.6 L370.0,222.6 L370.5,222.6 L371.1,222.6 L371.6,222.6 L372.1,222.6 L372.7,222.6 L373.2,222.6 L373.8,222.6 L374.3,222.6 L374.9,222.6 L375.4,222.6 L376.0,222.6 L376.5,222.6 L377.1,222.6 L377.6,222.6 L378.2,222.6 L378.7,222.6 L379.3,222.6 L379.8,222.6 L380.3,222.6 L380.9,222.6 L381.4,222.6 L382.0,222.6 L382.5,222.6 L383.1,222.6 L383.6,222.6 L384.2,222.6 L384.7,222.6 L385.3,222.6 L385.8,222.6 L386.4,222.6 L386.9,222.6 L387.5,222.6 L388.0,222.6 L388.5,222.6 L389.1,222.6 L389.6,222.6 L390.2,222.6 L390.7,222.6 L391.3,222.6 L391.8,222.6 L392.4,222.6 L392.9,222.6 L393.5,222.6 L394.0,222.6 L394.6,222.6 L395.1,222.6 L395.7,222.6 L396.2,222.6 L396.7,222.6 L397.3,222.6 L397.8,222.6 L398.4,222.6 L398.9,222.6 L399.5,222.6 L400.0,222.6 L400.6,222.6 L401.1,222.6 L401.7,222.6 L402.2,222.6 L402.8,222.6 L403.3,222.6 L403.9,222.6 L404.4,222.6 L404.9,222.6 L405.5,222.6 L406.0,222.6 L406.6,222.6 L407.1,222.6 L407.7,222.6 L408.2,222.6 L408.8,222.6 L409.3,222.6 L409.9,222.6 L410.4,222.6 L411.0,222.6 L411.5,222.6 L412.1,222.6 L412.6,222.6 L413.1,222.6 L413.7,222.6 L414.2,222.6 L414.8,222.6 L415.3,222.6 L415.9,222.6 L416.4,222.6 L417.0,222.6 L417.5,222.6 L418.1,222.6 L418.6,222.6 L419.2,222.6 L419.7,222.6 L420.3,222.6 L420.8,222.6 L421.3,222.6 L421.9,222.6 L422.4,222.6 L423.0,222.6 L423.5,222.6 L424.1,222.6 L424.6,222.6 L425.2,222.6 L425.7,222.6 L426.3,222.6 L426.8,222.6 L427.4,222.6 L427.9,222.6 L428.5,222.6 L429.0,222.6 L429.5,222.6 L430.1,222.6 L430.6,222.6 L431.2,222.6 L431.7,222.6 L432.3,222.6 L432.8,222.6 L433.4,222.6 L433.9,222.6 L434.5,222.6 L435.0,222.6 L435.6,222.6 L436.1,222.6 L436.7,222.6 L437.2,222.6 L437.7,222.6 L438.3,222.6 L438.8,222.6 L439.4,222.6 L439.9,222.6 L440.5,222.6 L441.0,222.6 L441.6,222.6 L442.1,222.6 L442.7,222.6 L443.2,222.6 L443.8,222.6 L444.3,222.6 L444.9,222.6 L445.4,222.6 L445.9,222.6 L446.5,222.6 L447.0,222.6 L447.6,222.6 L448.1,222.6 L448.7,222.6 L449.2,222.6 L449.8,222.6 L450.3,222.6 L450.9,222.6 L451.4,222.6 L452.0,222.6 L452.5,222.6 L453.1,222.6 L453.6,222.6 L454.1,222.6 L454.7,222.6 L455.2,222.6 L455.8,222.6 L456.3,222.6 L456.9,222.6 L457.4,222.6 L458.0,222.6 L458.5,222.6 L459.1,222.6 L459.6,222.6 L460.2,222.6 L460.7,222.6 L461.3,222.6 L461.8,222.6 L462.3,222.6 L462.9,222.6 L463.4,222.6 L464.0,222.6 L464.5,222.6 L465.1,222.6 L465.6,222.6 L466.2,222.6 L466.7,222.6 L467.3,222.6 L467.8,222.6 L468.4,222.6 L468.9,222.6 L469.5,222.6 L470.0,222.6 L470.5,222.6 L471.1,222.6 L471.6,222.6 L472.2,222.6 L472.7,222.6 L473.3,222.6 L473.8,222.6 L474.4,222.6 L474.9,222.6 L475.5,222.6 L476.0,222.6 L476.6,222.6 L477.1,222.6 L477.7,222.6 L478.2,222.6 L478.7,222.6 L479.3,222.6 L479.8,222.6 L480.4,222.6 L480.9,222.6 L481.5,222.6 L482.0,222.6 L482.6,222.6 L483.1,222.6 L483.7,222.6 L484.2,222.6 L484.8,222.6 L485.3,222.6 L485.9,222.6 L486.4,222.6 L486.9,222.6 L487.5,222.6 L488.0,222.6 L488.6,222.6 L489.1,222.6 L489.7,222.6 L490.2,222.6 L490.8,222.6 L491.3,222.6 L491.9,222.6 L492.4,222.6 L493.0,222.6 L493.5,222.6 L494.1,222.6 L494.6,222.6 L495.1,222.6 L495.7,222.6 L496.2,222.6 L496.8,222.6 L497.3,222.6 L497.9,222.6 L498.4,222.6 L499.0,222.6 L499.5,222.6 L500.1,222.6 L500.6,222.6 L501.2,222.6 L501.7,222.6 L502.3,222.6 L502.8,222.6 L503.3,222.6 L503.9,222.6 L504.4,222.6 L505.0,222.6 L505.5,222.6 L506.1,222.6 L506.6,222.6 L507.2,222.6 L507.7,222.6 L508.3,222.6 L508.8,222.6 L509.4,222.6 L509.9,222.6 L510.5,222.6 L511.0,222.6 L511.5,222.6 L512.1,222.6 L512.6,222.6 L513.2,222.6 L513.7,222.6 L514.3,222.6 L514.8,222.6 L515.4,222.6 L515.9,222.6 L516.5,222.6 L517.0,222.6 L517.6,222.6 L518.1,222.6 L518.7,222.6 L519.2,222.6 L519.7,222.6 L520.3,222.6 L520.8,222.6 L521.4,222.6 L521.9,222.6 L522.5,222.6 L523.0,222.6 L523.6,222.6 L524.1,222.6 L524.7,222.6 L525.2,222.6 L525.8,222.6 L526.3,222.6 L526.9,222.6 L527.4,222.6 L527.9,222.6 L528.5,222.6 L529.0,222.6 L529.6,222.6 L530.1,222.6 L530.7,222.6 L531.2,222.6 L531.8,222.6 L532.3,222.6 L532.9,222.6 L533.4,222.6 L534.0,222.6 L534.5,222.6 L535.1,222.6 L535.6,222.6 L536.1,222.6 L536.7,222.6 L537.2,222.6 L537.8,222.6 L538.3,222.6 L538.9,222.6 L539.4,222.6 L540.0,222.6 L540.5,222.6 L541.1,222.6 L541.6,222.6 L542.2,222.6 L542.7,222.6 L543.3,222.6 L543.8,222.6 L544.3,222.6 L544.9,222.6 L545.4,222.6 L546.0,222.6 L546.5,222.6 L547.1,222.6 L547.6,222.6 L548.2,222.6 L548.7,222.6 L549.3,222.6 L549.8,222.6 L550.4,222.6 L550.9,222.6 L551.5,222.6 L552.0,222.6 L552.5,222.6 L553.1,222.6 L553.6,222.6 L554.2,222.6 L554.7,222.6 L555.3,222.6 L555.8,222.6 L556.4,222.6 L556.9,222.6 L557.5,222.6 L558.0,222.6 L558.6,222.6 L559.1,222.6 L559.7,222.6 L560.2,222.6 L560.7,222.6 L561.3,222.6 L561.8,222.6 L562.4,222.6 L562.9,222.6 L563.5,222.6 L564.0,222.6 L564.6,222.6 L565.1,222.6 L565.7,222.6 L566.2,222.6 L566.8,222.6 L567.3,222.6 L567.9,222.6 L568.4,222.6 L568.9,222.6 L569.5,222.6 L570.0,222.6 L570.6,222.6 L571.1,222.6 L571.7,222.6 L572.2,222.6 L572.8,222.6 L573.3,222.6 L573.9,222.6 L574.4,222.6 L575.0,222.6 L575.5,222.6 L576.1,222.6 L576.6,222.6 L577.1,222.6 L577.7,222.6 L578.2,222.6 L578.8,222.6 L579.3,222.6 L579.9,222.6 L580.4,222.6 L581.0,222.6 L581.5,222.6 L582.1,222.6 L582.6,222.6 L583.2,222.6 L583.7,222.6 L584.3,222.6 L584.8,222.6 L585.3,222.6 L585.9,222.6 L586.4,222.6 L587.0,222.6 L587.5,222.6 L588.1,222.6 L588.6,222.6 L589.2,222.6 L589.7,222.6 L590.3,222.6 L590.8,222.6 L591.4,222.6 L591.9,222.6 L592.5,222.6 L593.0,222.6 L593.5,222.6 L594.1,222.6 L594.6,222.6 L595.2,222.6 L595.7,222.6 L596.3,222.6 L596.8,222.6 L597.4,222.6 L597.9,222.6 L598.5,222.6 L599.0,222.6 L599.6,222.6 L600.1,222.6 L600.7,222.6 L601.2,222.6 L601.7,222.6 L602.3,222.6 L602.8,222.6 L603.4,222.6 L603.9,222.6 L604.5,222.6 L605.0,222.6 L605.6,222.6 L606.1,222.6 L606.7,222.6 L607.2,222.6 L607.8,222.6 L608.3,222.6 L608.9,222.6 L609.4,222.6 L609.9,222.6 L610.5,222.6 L611.0,222.6 L611.6,222.6 L612.1,222.6 L612.7,222.6 L613.2,222.6 L613.8,222.6 L614.3,222.6 L614.9,222.6 L615.4,222.6 L616.0,222.6 L616.5,222.6 L617.1,222.6 L617.6,222.6 L618.1,222.6 L618.7,222.6 L619.2,222.6 L619.8,222.6 L620.3,222.6 L620.9,222.6 L621.4,222.6 L622.0,222.6 L622.5,222.6 L623.1,222.6 L623.6,222.6 L624.2,222.6 L624.7,222.6 L625.3,222.6 L625.8,222.6 L626.3,222.6 L626.9,222.6 L627.4,222.6 L628.0,222.6 L628.5,222.6 L629.1,222.6 L629.6,222.6 L630.2,222.6 L630.7,222.6 L631.3,222.6 L631.8,222.6 L632.4,222.6 L632.9,222.6 L633.5,222.6 L634.0,222.6 L634.5,222.6 L635.1,222.6 L635.6,222.6 L636.2,222.6 L636.7,222.6 L637.3,222.6 L637.8,222.6 L638.4,222.6 L638.9,222.6 L639.5,222.6 L640.0,222.6 L640.6,222.6 L641.1,222.6 L641.7,222.6 L642.2,222.6 L642.7,222.6 L643.3,222.6 L643.8,222.6 L644.4,222.6 L644.9,222.6 L645.5,222.6 L646.0,222.6 L646.6,222.6 L647.1,222.6 L647.7,222.6 L648.2,222.6 L648.8,222.6 L649.3,222.6 L649.9,222.6 L650.4,222.6 L650.9,222.6 L651.5,222.6 L652.0,222.6 L652.6,222.6 L653.1,222.6 L653.7,222.6 L654.2,222.6 L654.8,222.6 L655.3,222.6 L655.9,222.6 L656.4,222.6 L657.0,222.6 L657.5,222.6 L658.1,222.6 L658.6,222.6 L659.1,222.6 L659.7,222.6 L660.2,222.6 L660.8,222.6 L661.3,222.6 L661.9,222.6 L662.4,222.6 L663.0,222.6 L663.5,222.6 L664.1,222.6 L664.6,222.6 L665.2,222.6 L665.7,222.6 L666.3,222.6 L666.8,222.6 L667.3,222.6 L667.9,222.6 L668.4,222.6 L669.0,222.6 L669.5,222.6 L670.1,222.6 L670.6,222.6 L671.2,222.6 L671.7,222.6 L672.3,222.6 L672.8,222.6 L673.4,222.6 L673.9,222.6 L674.5,222.6 L675.0,222.6 L675.5,222.6 L676.1,222.6 L676.6,222.6 L677.2,222.6 L677.7,222.6 L678.3,222.6 L678.8,222.6 L679.4,222.6 L679.9,222.6 L680.5,222.6 L681.0,222.6 L681.6,222.6 L682.1,222.6 L682.7,222.6 L683.2,222.6 L683.7,222.6 L684.3,222.6 L684.8,222.6 L685.4,222.6 L685.9,222.6 L686.5,222.6 L687.0,222.6 L687.6,222.6 L688.1,222.6 L688.7,222.6 L689.2,222.6 L689.8,222.6 L690.3,222.6 L690.9,222.6 L691.4,222.6 L691.9,222.6 L692.5,222.6 L693.0,222.6 L693.6,222.6 L694.1,222.6 L694.7,222.6 L695.2,222.6 L695.8,222.6 L696.3,222.6 L696.9,222.6 L697.4,222.6 L698.0,222.6 L698.5,222.6 L699.1,222.6 L699.6,222.6 L700.1,222.6 L700.7,222.6 L701.2,222.6 L701.8,222.6 L702.3,222.6 L702.9,222.6 L703.4,222.6 L704.0,222.6 L704.5,222.6 L705.1,222.6 L705.6,222.6 L706.2,222.6 L706.7,222.6 L707.3,222.6 L707.8,222.6 L708.3,222.6 L708.9,222.6 L709.4,222.6 L710.0,222.6 L710.5,222.6 L711.1,222.6 L711.6,222.6 L712.2,222.6 L712.7,222.6 L713.3,222.6 L713.8,222.6 L714.4,222.6 L714.9,222.6 L715.5,222.6 L716.0,222.6 L716.5,222.6 L717.1,222.6 L717.6,222.6 L718.2,222.6 L718.7,222.6 L719.3,222.6 L719.8,222.6 L720.4,222.6 L720.9,222.6 L721.5,222.6 L722.0,222.6 L722.6,222.6 L723.1,222.6 L723.7,222.6 L724.2,222.6 L724.7,222.6 L725.3,222.6 L725.8,222.6 L726.4,222.6 L726.9,222.6 L727.5,222.6 L728.0,222.6 L728.6,222.6 L729.1,222.6 L729.7,222.6 L730.2,222.6 L730.8,222.6 L731.3,222.6 L731.9,222.6 L732.4,222.6 L732.9,222.6 L733.5,222.6 L734.0,222.6 L734.6,222.6 L735.1,222.6 L735.7,222.6 L736.2,222.6 L736.8,222.6 L737.3,222.6 L737.9,222.6 L738.4,222.6 L739.0,222.6 L739.5,222.6 L740.1,222.6 L740.6,222.6 L741.1,222.6 L741.7,222.6 L742.2,222.6 L742.8,222.6 L743.3,222.6 L743.9,222.6 L744.4,222.6 L745.0,222.6 L745.5,222.6 L746.1,222.6 L746.6,222.6 L747.2,222.6 L747.7,222.6 L748.3,222.6 L748.8,222.6 L749.3,222.6 L749.9,222.6 L750.4,222.6 L751.0,222.6 L751.5,222.6 L752.1,222.6 L752.6,222.6 L753.2,222.6 L753.7,222.6 L754.3,222.6 L754.8,222.6 L755.4,222.6 L755.9,222.6 L756.5,222.6 L757.0,222.6 L757.5,222.6 L758.1,222.6 L758.6,222.6 L759.2,222.6 L759.7,222.6 L760.3,222.6 L760.8,222.6 L761.4,222.6 L761.9,222.6 L762.5,222.6 L763.0,222.6 L763.6,222.6 L764.1,222.6 L764.7,222.6 L765.2,222.6 L765.7,222.6 L766.3,222.6 L766.8,222.6 L767.4,222.6 L767.9,222.6 L768.5,222.6 L769.0,222.6 L769.6,222.6 L770.1,222.6 L770.7,222.6 L771.2,222.6 L771.8,222.6 L772.3,222.6 L772.9,222.6 L773.4,222.6 L773.9,222.6 L774.5,222.6 L775.0,222.6 L775.6,222.6 L776.1,222.6 L776.7,222.6 L777.2,222.6 L777.8,222.6 L778.3,222.6 L778.9,222.6 L779.4,222.6 L780.0,222.6 L780.5,222.6 L781.1,222.6 L781.6,222.6 L782.1,222.6 L782.7,222.6 L783.2,222.6 L783.8,222.6 L784.3,222.6 L784.9,222.6 L785.4,222.6 L786.0,222.6 L786.5,222.6 L787.1,222.6 L787.6,222.6 L788.2,222.6 L788.7,222.6 L789.3,222.6 L789.8,222.6 L790.3,222.6 L790.9,222.6 L791.4,222.6 L792.0,222.6 L792.5,222.6 L793.1,222.6 L793.6,222.6 L794.2,222.6 L794.7,222.6 L795.3,222.6 L795.8,222.6 L796.4,222.6 L796.9,222.6 L797.5,222.6 L798.0,222.6 L798.5,222.6 L799.1,222.6 L799.6,222.6 L800.2,222.6 L800.7,222.6 L801.3,222.6 L801.8,222.6 L802.4,222.6 L802.9,222.6 L803.5,222.6 L804.0,222.6 L804.6,222.6 L805.1,222.6 L805.7,222.6 L806.2,222.6 L806.7,222.6 L807.3,222.6 L807.8,222.6 L808.4,222.6 L808.9,222.6 L809.5,222.6 L810.0,222.6 L810.6,222.6 L811.1,222.6 L811.7,222.6 L812.2,222.6 L812.8,222.6 L813.3,222.6 L813.9,222.6 L814.4,222.6 L814.9,222.6 L815.5,222.6 L816.0,222.6 L816.6,222.6 L817.1,222.6 L817.7,222.6 L818.2,222.6 L818.8,222.6 L819.3,222.6 L819.9,222.6 L820.4,222.6 L821.0,222.6 L821.5,222.6 L822.1,222.6 L822.6,222.6 L823.1,222.6 L823.7,222.6 L824.2,222.6 L824.8,222.6 L825.3,222.6 L825.9,222.6 L826.4,222.6 L827.0,222.6 L827.5,222.6 L828.1,222.6 L828.6,222.6 L829.2,222.6 L829.7,222.6 L830.3,222.6 L830.8,222.6 L831.3,222.6 L831.9,222.6 L832.4,222.6 L833.0,222.6 L833.5,222.6 L834.1,222.6 L834.6,222.6 L835.2,222.6 L835.7,222.6 L836.3,222.6 L836.8,222.6 L837.4,222.6 L837.9,222.6 L838.5,222.6 L839.0,222.6 L839.5,222.6 L840.1,222.6 L840.6,222.6 L841.2,222.6 L841.7,222.6 L842.3,222.6 L842.8,222.6 L843.4,222.6 L843.9,222.6 L844.5,222.6 L845.0,222.6 L845.6,222.6 L846.1,222.6 L846.7,222.6 L847.2,222.6 L847.7,222.6 L848.3,222.6 L848.8,222.6 L849.4,222.6 L849.9,222.6 L850.5,222.6 L851.0,222.6 L851.6,222.6 L852.1,222.6 L852.7,222.6 L853.2,222.6 L853.8,222.6 L854.3,222.6 L854.9,222.6 L855.4,222.6 L855.9,222.6 L856.5,222.6 L857.0,222.6 L857.6,222.6 L858.1,222.6 L858.7,222.6 L859.2,222.6 L859.8,222.6 L860.3,222.6 L860.9,222.6 L861.4,222.6 L862.0,222.6 L862.5,222.6 L863.1,222.6 L863.6,222.6 L864.1,222.6 L864.7,222.6 L865.2,222.6 L865.8,222.6 L866.3,222.6 L866.9,222.6 L867.4,222.6 L868.0,222.6 L868.5,222.6 L869.1,222.6 L869.6,222.6 L870.2,222.6 L870.7,222.6 L871.3,222.6 L871.8,222.6 L872.3,222.6 L872.9,222.6 L873.4,222.6 L874.0,222.6 L874.5,222.6 L875.1,222.6 L875.6,222.6 L876.2,222.6 L876.7,222.6 L877.3,222.6 L877.8,222.6 L878.4,222.6 L878.9,222.6 L879.5,222.6 L880.0,222.6" fill="none" stroke="#b33b15" stroke-width="1" stroke-dasharray="4"/>
<text x="4" y="315" font-size="12">corner_top_right</text>
<path d="M60.0,320.0 L68.2,320.0 L76.4,320.0 L92.8,320.0 L125.6,320.0 L169.3,320.0 L242.0,320.0 L333.3,320.0 L497.3,320.0 L880.0,320.0" fill="none" stroke="#6750a4" stroke-width="2"/>
<path d="M60.0,320.0 L60.5,320.0 L61.1,320.0 L61.6,320.0 L62.2,395713.4 L62.7,1564345.9 L63.3,3479133.2 L63.8,6113753.8 L64.4,9442267.9 L64.9,13438735.5 L65.5,18077788.9 L66.0,23334441.7 L66.6,29183707.8 L67.1,35601363.7 L67.7,42563567.7 L68.2,50046287.1 L68.7,58026443.0 L69.3,66481147.3 L69.8,75388084.0 L70.4,84724937.0 L70.9,94470153.4 L71.5,104602370.8 L72.0,115100608.4 L72.6,125944457.6 L73.1,137114081.9 L73.7,148589454.2 L74.2,160351691.8 L74.8,172381721.1 L75.3,184661231.6 L75.9,197172294.2 L76.4,209897170.6 L76.9,222818885.4 L77.5,235920653.9 L78.0,249186263.6 L78.6,262599692.9 L79.1,276145301.4 L79.7,289808402.6 L80.2,303573928.4 L80.8,317427955.2 L81.3,331356559.3 L81.9,345346198.6 L82.4,359383903.1 L83.0,373456893.5 L83.5,387553153.6 L84.1,401660667.0 L84.6,415767989.7 L85.1,429864059.0 L85.7,443938098.5 L86.2,457979903.7 L86.8,471979365.9 L87.3,485926948.1 L87.9,499813399.8 L88.4,513629851.9 L89.0,527367816.5 L89.5,541018996.8 L90.1,554575667.9 L90.6,568030200.5 L91.2,581375537.4 L91.7,594604812.2 L92.3,607711444.4 L92.8,620689139.9 L93.3,633532176.5 L93.9,646234832.3 L94.4,658791862.1 L95.0,671198115.9 L95.5,683449016.1 L96.1,695540080.6 L96.6,707467113.1 L97.2,719226203.5 L97.7,730813632.5 L98.3,742226157.7 L98.8,753460631.9 L99.4,764514003.3 L99.9,775383792.4 L100.5,786067424.3 L101.0,796562896.3 L101.5,806868014.9 L102.1,816981254.1 L102.6,826900897.5 L103.2,836625609.9 L103.7,846154342.2 L104.3,855486045.4 L104.8,864620051.9 L105.4,873555694.1 L105.9,882292590.7 L106.5,890830455.3 L107.0,899169288.2 L107.6,907309184.6 L108.1,915250335.3 L108.7,922993121.7 L109.2,930538116.0 L109.7,937885890.5 L110.3,945037398.9 L110.8,951993404.0 L111.4,958755050.2 L111.9,965323577.4 L112.5,971700034.7 L113.0,977886043.1 L113.6,983883033.3 L114.1,989692531.2 L114.7,995316253.2 L115.2,1000756011.5 L115.8,1006013618.0 L116.3,1011091075.5 L116.9,1015990291.2 L117.4,1020713458.6 L117.9,1025262771.2 L118.5,1029640422.4 L119.0,1033848605.7 L119.6,1037889705.2 L120.1,1041766200.6 L120.7,1045480475.9 L121.2,1049035010.9 L121.8,1052432380.2 L122.3,1055675063.7 L122.9,1058765826.7 L123.4,1061707244.4 L124.0,1064501891.7 L124.5,1067152534.1 L125.1,1069662032.6 L125.6,1072032867.0 L126.1,1074267993.5 L126.7,1076370082.4 L127.2,1078341994.8 L127.8,1080186400.9 L128.3,1081906257.2 L128.9,1083504329.2 L129.4,1084983287.4 L130.0,1086346088.0 L130.5,1087595592.1 L131.1,1088734374.6 L131.6,1089765391.9 L132.2,1090691505.0 L132.7,1091515288.9 L133.3,1092239604.5 L133.8,1092867217.6 L134.3,1093400798.4 L134.9,1093843207.9 L135.4,1094196925.7 L136.0,1094464812.8 L136.5,1094649444.1 L137.1,1094753490.0 L137.6,1094779525.3 L138.2,1094730220.4 L138.7,1094607959.3 L139.3,1094415412.5 L139.8,1094154964.0 L140.4,1093829284.2 L140.9,1093440566.6 L141.5,1092991386.0 L142.0,1092483935.9 L142.5,1091920791.2 L143.1,1091304145.4 L143.6,1090636191.9 L144.2,1089919314.9 L144.7,1089155612.5 L145.3,1088347278.2 L145.8,1087496409.9 L146.4,1086605201.3 L146.9,1085675559.6 L147.5,1084709487.5 L148.0,1083709083.1 L148.6,1082676253.8 L149.1,1081612811.6 L149.7,1080520759.1 L150.2,1079401717.7 L150.7,1078257594.6 L151.3,1077090106.5 L151.8,1075900970.0 L152.4,1074691806.4 L152.9,1073464236.8 L153.5,1072219882.5 L154.0,1070960269.5 L154.6,1069686828.2 L155.1,1068401084.5 L155.7,1067104468.9 L156.2,1065798316.5 L156.8,1064483962.6 L157.3,1063162837.5 L157.9,1061836085.8 L158.4,1060504947.2 L158.9,1059170756.9 L159.5,1057834468.4 L160.0,1056497226.3 L160.6,1055160270.3 L161.1,1053824458.6 L161.7,1052490935.8 L162.2,1051160655.5 L162.8,1049834476.0 L163.3,1048513446.4 L163.9,1047198234.1 L164.4,1045889888.3 L165.0,1044589076.6 L165.5,1043296561.8 L166.1,1042013202.2 L166.6,1040739570.2 L167.1,1039476428.6 L167.7,1038224349.5 L168.2,1036984000.7 L168.8,1035755954.3 L169.3,1034540782.5 L169.9,1033339057.5 L170.4,1032151160.8 L171.0,1030977569.1 L171.5,1029818854.9 L172.1,1028675304.0 L172.6,1027547393.4 L173.2,1026435409.1 L173.7,1025339828.1 L174.3,1024260840.9 L174.8,1023198733.8 L175.3,1022153888.3 L175.9,1021126399.6 L176.4,1020116649.2 L177.0,1019124732.5 L177.5,1018150935.7 L178.1,1017195354.0 L178.6,1016258082.9 L179.2,1015339313.1 L179.7,1014439235.3 L180.3,1013557754.1 L180.8,1012694964.9 L181.4,1011851058.5 L181.9,1011026034.9 L182.5,1010219798.6 L183.0,1009432445.1 L183.5,1008663974.3 L184.1,1007914290.9 L184.6,1007183490.3 L185.2,1006471381.7 L185.7,1005777869.7 L186.3,1005103049.8 L186.8,1004446731.1 L187.4,1003808818.4 L187.9,1003189120.8 L188.5,1002587638.4 L189.0,1002004180.5 L189.6,1001438651.6 L190.1,1000890861.1 L190.7,1000360713.5 L191.2,999847827.5 L191.7,999352298.3 L192.3,998873744.5 L192.8,998412070.8 L193.4,997967086.4 L193.9,997538505.1 L194.5,997126136.3 L195.0,996729884.7 L195.6,996349368.6 L196.1,995984397.5 L196.7,995634780.4 L197.2,995300326.9 L197.8,994980655.2 L198.3,994675670.2 L198.9,994384990.3 L199.4,994108424.7 L199.9,993845782.8 L200.5,993596683.1 L201.0,993360934.8 L201.6,993138347.2 L202.1,992928538.8 L202.7,992731223.6 L203.2,992546306.2 L203.8,992373405.0 L204.3,992212234.1 L204.9,992062602.6 L205.4,991924224.4 L206.0,991796813.5 L206.5,991680083.8 L207.1,991573749.1 L207.6,991477714.1 L208.1,991391501.9 L208.7,991314921.9 L209.2,991247783.2 L209.8,991189704.5 L210.3,991140494.9 L210.9,991099963.7 L211.4,991067729.5 L212.0,991043601.6 L212.5,991027389.1 L213.1,991018710.7 L213.6,991017375.5 L214.2,991023192.9 L214.7,991035876.8 L215.3,991055141.0 L215.8,991080890.2 L216.3,991112647.6 L216.9,991150508.4 L217.4,991193900.6 L218.0,991242919.5 L218.5,991297088.2 L219.1,991356311.4 L219.6,991420398.3 L220.2,991489062.8 L220.7,991562114.3 L221.3,991639361.9 L221.8,991720710.3 L222.4,991805778.1 L222.9,991894374.4 L223.5,991986499.4 L224.0,992081866.8 L224.5,992180190.6 L225.1,992281470.8 L225.6,992385326.0 L226.2,992491851.4 L226.7,992600665.6 L227.3,992711577.9 L227.8,992824683.7 L228.4,992939506.1 L228.9,993056140.5 L229.5,993174300.7 L230.0,993293891.5 L230.6,993414817.4 L231.1,993536887.7 L231.7,993659911.7 L232.2,993783889.3 L232.7,993908534.6 L233.3,994033847.4 L233.8,994159637.0 L234.4,994285903.5 L234.9,994412360.7 L235.5,994539008.7 L236.0,994665752.0 L236.6,994792495.3 L237.1,994919047.9 L237.7,995045409.7 L238.2,995171485.5 L238.8,995297084.4 L239.3,995422206.4 L239.9,995546756.3 L240.4,995670638.6 L240.9,995793853.3 L241.5,995916209.7 L242.0,996037707.8 L242.6,996158252.3 L243.1,996277843.0 L243.7,996396289.4 L244.2,996513686.7 L244.8,996629844.2 L245.3,996744857.4 L245.9,996858535.3 L246.4,996970973.5 L247.0,997081981.2 L247.5,997191558.4 L248.1,997299705.1 L248.6,997406325.9 L249.1,997511516.1 L249.7,997615085.2 L250.2,997717128.3 L250.8,997817550.2 L251.3,997916255.5 L251.9,998013434.9 L252.4,998108802.4 L253.0,998202548.5 L253.5,998294578.1 L254.1,998384891.1 L254.6,998473487.4 L255.2,998560271.8 L255.7,998645244.2 L256.3,998728499.9 L256.8,998810039.1 L257.3,998889766.3 L257.9,998967681.5 L258.4,999043784.7 L259.0,999118075.9 L259.5,999190650.5 L260.1,999261413.1 L260.6,999330459.2 L261.2,999397597.8 L261.7,999463019.9 L262.3,999526725.3 L262.8,999588714.2 L263.4,999648891.0 L263.9,999707351.2 L264.5,999764094.9 L265.0,999819026.5 L265.5,999872432.3 L266.1,999924026.1 L266.6,999974094.0 L267.2,1000022349.9 L267.7,1000069079.9 L268.3,1000114188.7 L268.8,1000157676.3 L269.4,1000199637.9 L269.9,1000239978.4 L270.5,1000278792.9 L271.0,1000316176.9 L271.6,1000352035.1 L272.1,1000386367.4 L272.7,1000419269.1 L273.2,1000450740.4 L273.7,1000480781.1 L274.3,1000509486.7 L274.8,1000536857.2 L275.4,1000562797.1 L275.9,1000587497.3 L276.5,1000610957.7 L277.0,1000633082.9 L277.6,1000653968.4 L278.1,1000673614.1 L278.7,1000692115.3 L279.2,1000709472.2 L279.8,1000725684.7 L280.3,1000740848.1 L280.9,1000754867.1 L281.4,1000767741.7 L281.9,1000779662.7 L282.5,1000790629.9 L283.0,1000800548.1 L283.6,1000809512.7 L284.1,1000817523.5 L284.7,1000824580.7 L285.2,1000830875.0 L285.8,1000836215.5 L286.3,1000840697.8 L286.9,1000844417.1 L287.4,1000847373.5 L288.0,1000849567.0 L288.5,1000850997.5 L289.1,1000851665.1 L289.6,1000851665.1 L290.1,1000850997.5 L290.7,1000849757.7 L291.2,1000847755.0 L291.8,1000845275.4 L292.3,1000842128.3 L292.9,1000838504.4 L293.4,1000834308.2 L294.0,1000829539.8 L294.5,1000824390.0 L295.1,1000818667.9 L295.6,1000812469.0 L296.2,1000805984.1 L296.7,1000798926.9 L297.3,1000791583.6 L297.8,1000783763.5 L298.3,1000775657.2 L298.9,1000767264.9 L299.4,1000758491.1 L300.0,1000749335.8 L300.5,1000739989.8 L301.1,1000730357.7 L301.6,1000720439.5 L302.2,1000710330.5 L302.7,1000700030.8 L303.3,1000689445.1 L303.8,1000678668.5 L304.4,1000667796.7 L304.9,1000656734.0 L305.5,1000645480.7 L306.0,1000634132.0 L306.5,1000622687.9 L307.1,1000611053.0 L307.6,1000599418.2 L308.2,1000587592.6 L308.7,1000575767.1 L309.3,1000563941.5 L309.8,1000552020.6 L310.4,1000540004.3 L310.9,1000527988.0 L311.5,1000515971.7 L312.0,1000504050.8 L312.6,1000492034.5 L313.1,1000480018.2 L313.7,1000000320.0 L314.2,1000000320.0 L314.7,1000000320.0 L315.3,1000000320.0 L315.8,1000000320.0 L316.4,1000000320.0 L316.9,1000000320.0 L317.5,1000000320.0 L318.0,1000000320.0 L318.6,1000000320.0 L319.1,1000000320.0 L319.7,1000000320.0 L320.2,1000000320.0 L320.8,1000000320.0 L321.3,1000000320.0 L321.9,1000000320.0 L322.4,1000000320.0 L322.9,1000000320.0 L323.5,1000000320.0 L324.0,1000000320.0 L324.6,1000000320.0 L325.1,1000000320.0 L325.7,1000000320.0 L326.2,1000000320.0 L326.8,1000000320.0 L327.3,1000000320.0 L327.9,1000000320.0 L328.4,1000000320.0 L329.0,1000000320.0 L329.5,1000000320.0 L330.1,1000000320.0 L330.6,1000000320.0 L331.1,1000000320.0 L331.7,1000000320.0 L332.2,1000000320.0 L332.8,1000000320.0 L333.3,1000000320.0 L333.9,1000000320.0 L334.4,1000000320.0 L335.0,1000000320.0 L335.5,1000000320.0 L336.1,1000000320.0 L336.6,1000000320.0 L337.2,1000000320.0 L337.7,1000000320.0 L338.3,1000000320.0 L338.8,1000000320.0 L339.3,1000000320.0 L339.9,1000000320.0 L340.4,1000000320.0 L341.0,1000000320.0 L341.5,1000000320.0 L342.1,1000000320.0 L342.6,1000000320.0 L343.2,1000000320.0 L343.7,1000000320.0 L344.3,1000000320.0 L344.8,1000000320.0 L345.4,1000000320.0 L345.9,1000000320.0 L346.5,1000000320.0 L347.0,1000000320.0 L347.5,1000000320.0 L348.1,1000000320.0 L348.6,1000000320.0 L349.2,1000000320.0 L349.7,1000000320.0 L350.3,1000000320.0 L350.8,1000000320.0 L351.4,1000000320.0 L351.9,1000000320.0 L352.5,1000000320.0 L353.0,1000000320.0 L353.6,1000000320.0 L354.1,1000000320.0 L354.7,1000000320.0 L355.2,1000000320.0 L355.7,1000000320.0 L356.3,1000000320.0 L356.8,1000000320.0 L357.4,1000000320.0 L357.9,1000000320.0 L358.5,1000000320.0 L359.0,1000000320.0 L359.6,1000000320.0 L360.1,1000000320.0 L360.7,1000000320.0 L361.2,1000000320.0 L361.8,1000000320.0 L362.3,1000000320.0 L362.9,1000000320.0 L363.4,1000000320.0 L363.9,1000000320.0 L364.5,1000000320.0 L365.0,1000000320.0 L365.6,1000000320.0 L366.1,1000000320.0 L366.7,1000000320.0 L367.2,1000000320.0 L367.8,1000000320.0 L368.3,1000000320.0 L368.9,1000000320.0 L369.4,1000000320.0 L370.0,1000000320.0 L370.5,1000000320.0 L371.1,1000000320.0 L371.6,1000000320.0 L372.1,1000000320.0 L372.7,1000000320.0 L373.2,1000000320.0 L373.8,1000000320.0 L374.3,1000000320.0 L374.9,1000000320.0 L375.4,1000000320.0 L376.0,1000000320.0 L376.5,1000000320.0 L377.1,1000000320.0 L377.6,1000000320.0 L378.2,1000000320.0 L378.7,1000000320.0 L379.3,1000000320.0 L379.8,1000000320.0 L380.3,1000000320.0 L380.9,1000000320.0 L381.4,1000000320.0 L382.0,1000000320.0 L382.5,1000000320.0 L383.1,1000000320.0 L383.6,1000000320.0 L384.2,1000000320.0 L384.7,1000000320.0 L385.3,1000000320.0 L385.8,1000000320.0 L386.4,1000000320.0 L386.9,1000000320.0 L387.5,1000000320.0 L388.0,1000000320.0 L388.5,1000000320.0 L389.1,1000000320.0 L389.6,1000000320.0 L390.2,1000000320.0 L390.7,1000000320.0 L391.3,1000000320.0 L391.8,1000000320.0 L392.4,1000000320.0 L392.9,1000000320.0 L393.5,1000000320.0 L394.0,1000000320.0 L394.6,1000000320.0 L395.1,1000000320.0 L395.7,1000000320.0 L396.2,1000000320.0 L396.7,1000000320.0 L397.3,1000000320.0 L397.8,1000000320.0 L398.4,1000000320.0 L398.9,1000000320.0 L399.5,1000000320.0 L400.0,1000000320.0 L400.6,1000000320.0 L401.1,1000000320.0 L401.7,1000000320.0 L402.2,1000000320.0 L402.8,1000000320.0 L403.3,1000000320.0 L403.9,1000000320.0 L404.4,1000000320.0 L404.9,1000000320.0 L405.5,1000000320.0 L406.0,1000000320.0 L406.6,1000000320.0 L407.1,1000000320.0 L407.7,1000000320.0 L408.2,1000000320.0 L408.8,1000000320.0 L409.3,1000000320.0 L409.9,1000000320.0 L410.4,1000000320.0 L411.0,1000000320.0 L411.5,1000000320.0 L412.1,1000000320.0 L412.6,1000000320.0 L413.1,1000000320.0 L413.7,1000000320.0 L414.2,1000000320.0 L414.8,1000000320.0 L415.3,1000000320.0 L415.9,1000000320.0 L416.4,1000000320.0 L417.0,1000000320.0 L417.5,1000000320.0 L418.1,1000000320.0 L418.6,1000000320.0 L419.2,1000000320.0 L419.7,1000000320.0 L420.3,1000000320.0 L420.8,1000000320.0 L421.3,1000000320.0 L421.9,1000000320.0 L422.4,1000000320.0 L423.0,1000000320.0 L423.5,1000000320.0 L424.1,1000000320.0 L424.6,1000000320.0 L425.2,1000000320.0 L425.7,1000000320.0 L426.3,1000000320.0 L426.8,1000000320.0 L427.4,1000000320.0 L427.9,1000000320.0 L428.5,1000000320.0 L429.0,1000000320.0 L429.5,1000000320.0 L430.1,1000000320.0 L430.6,1000000320.0 L431.2,1000000320.0 L431.7,1000000320.0 L432.3,1000000320.0 L432.8,1000000320.0 L433.4,1000000320.0 L433.9,1000000320.0 L434.5,1000000320.0 L435.0,1000000320.0 L435.6,1000000320.0 L436.1,1000000320.0 L436.7,1000000320.0 L437.2,1000000320.0 L437.7,1000000320.0 L438.3,1000000320.0 L438.8,1000000320.0 L439.4,1000000320.0 L439.9,1000000320.0 L440.5,1000000320.0 L441.0,1000000320.0 L441.6,1000000320.0 L442.1,1000000320.0 L442.7,1000000320.0 L443.2,1000000320.0 L443.8,1000000320.0 L444.3,1000000320.0 L444.9,1000000320.0 L445.4,1000000320.0 L445.9,1000000320.0 L446.5,1000000320.0 L447.0,1000000320.0 L447.6,1000000320.0 L448.1,1000000320.0 L448.7,1000000320.0 L449.2,1000000320.0 L449.8,1000000320.0 L450.3,1000000320.0 L450.9,1000000320.0 L451.4,1000000320.0 L452.0,1000000320.0 L452.5,1000000320.0 L453.1,1000000320.0 L453.6,1000000320.0 L454.1,1000000320.0 L454.7,1000000320.0 L455.2,1000000320.0 L455.8,1000000320.0 L456.3,1000000320.0 L456.9,1000000320.0 L457.4,1000000320.0 L458.0,1000000320.0 L458.5,1000000320.0 L459.1,1000000320.0 L459.6,1000000320.0 L460.2,1000000320.0 L460.7,1000000320.0 L461.3,1000000320.0 L461.8,1000000320.0 L462.3,1000000320.0 L462.9,1000000320.0 L463.4,1000000320.0 L464.0,1000000320.0 L464.5,1000000320.0 L465.1,1000000320.0 L465.6,1000000320.0 L466.2,1000000320.0 L466.7,1000000320.0 L467.3,1000000320.0 L467.8,1000000320.0 L468.4,1000000320.0 L468.9,1000000320.0 L469.5,1000000320.0 L470.0,1000000320.0 L470.5,1000000320.0 L471.1,1000000320.0 L471.6,1000000320.0 L472.2,1000000320.0 L472.7,1000000320.0 L473.3,1000000320.0 L473.8,1000000320.0 L474.4,1000000320.0 L474.9,1000000320.0 L475.5,1000000320.0 L476.0,1000000320.0 L476.6,1000000320.0 L477.1,1000000320.0 L477.7,1000000320.0 L478.2,1000000320.0 L478.7,1000000320.0 L479.3,1000000320.0 L479.8,1000000320.0 L480.4,1000000320.0 L480.9,1000000320.0 L481.5,1000000320.0 L482.0,1000000320.0 L482.6,1000000320.0 L483.1,1000000320.0 L483.7,1000000320.0 L484.2,1000000320.0 L484.8,1000000320.0 L485.3,1000000320.0 L485.9,1000000320.0 L486.4,1000000320.0 L486.9,1000000320.0 L487.5,1000000320.0 L488.0,1000000320.0 L488.6,1000000320.0 L489.1,1000000320.0 L489.7,1000000320.0 L490.2,1000000320.0 L490.8,1000000320.0 L491.3,1000000320.0 L491.9,1000000320.0 L492.4,1000000320.0 L493.0,1000000320.0 L493.5,1000000320.0 L494.1,1000000320.0 L494.6,1000000320.0 L495.1,1000000320.0 L495.7,1000000320.0 L496.2,1000000320.0 L496.8,1000000320.0 L497.3,1000000320.0 L497.9,1000000320.0 L498.4,1000000320.0 L499.0,1000000320.0 L499.5,1000000320.0 L500.1,1000000320.0 L500.6,1000000320.0 L501.2,1000000320.0 L501.7,1000000320.0 L502.3,1000000320.0 L502.8,1000000320.0 L503.3,1000000320.0 L503.9,1000000320.0 L504.4,1000000320.0 L505.0,1000000320.0 L505.5,1000000320.0 L506.1,1000000320.0 L506.6,1000000320.0 L507.2,1000000320.0 L507.7,1000000320.0 L508.3,1000000320.0 L508.8,1000000320.0 L509.4,1000000320.0 L509.9,1000000320.0 L510.5,1000000320.0 L511.0,1000000320.0 L511.5,1000000320.0 L512.1,1000000320.0 L512.6,1000000320.0 L513.2,1000000320.0 L513.7,1000000320.0 L514.3,1000000320.0 L514.8,1000000320.0 L515.4,1000000320.0 L515.9,1000000320.0 L516.5,1000000320.0 L517.0,1000000320.0 L517.6,1000000320.0 L518.1,1000000320.0 L518.7,1000000320.0 L519.2,1000000320.0 L519.7,1000000320.0 L520.3,1000000320.0 L520.8,1000000320.0 L521.4,1000000320.0 L521.9,1000000320.0 L522.5,1000000320.0 L523.0,1000000320.0 L523.6,1000000320.0 L524.1,1000000320.0 L524.7,1000000320.0 L525.2,1000000320.0 L525.8,1000000320.0 L526.3,1000000320.0 L526.9,1000000320.0 L527.4,1000000320.0 L527.9,1000000320.0 L528.5,1000000320.0 L529.0,1000000320.0 L529.6,1000000320.0 L530.1,1000000320.0 L530.7,1000000320.0 L531.2,1000000320.0 L531.8,1000000320.0 L532.3,1000000320.0 L532.9,1000000320.0 L533.4,1000000320.0 L534.0,1000000320.0 L534.5,1000000320.0 L535.1,1000000320.0 L535.6,1000000320.0 L536.1,1000000320.0 L536.7,1000000320.0 L537.2,1000000320.0 L537.8,1000000320.0 L538.3,1000000320.0 L538.9,1000000320.0 L539.4,1000000320.0 L540.0,1000000320.0 L540.5,1000000320.0 L541.1,1000000320.0 L541.6,1000000320.0 L542.2,1000000320.0 L542.7,1000000320.0 L543.3,1000000320.0 L543.8,1000000320.0 L544.3,1000000320.0 L544.9,1000000320.0 L545.4,1000000320.0 L546.0,1000000320.0 L546.5,1000000320.0 L547.1,1000000320.0 L547.6,1000000320.0 L548.2,1000000320.0 L548.7,1000000320.0 L549.3,1000000320.0 L549.8,1000000320.0 L550.4,1000000320.0 L550.9,1000000320.0 L551.5,1000000320.0 L552.0,1000000320.0 L552.5,1000000320.0 L553.1,1000000320.0 L553.6,1000000320.0 L554.2,1000000320.0 L554.7,1000000320.0 L555.3,1000000320.0 L555.8,1000000320.0 L556.4,1000000320.0 L556.9,1000000320.0 L557.5,1000000320.0 L558.0,1000000320.0 L558.6,1000000320.0 L559.1,1000000320.0 L559.7,1000000320.0 L560.2,1000000320.0 L560.7,1000000320.0 L561.3,1000000320.0 L561.8,1000000320.0 L562.4,1000000320.0 L562.9,1000000320.0 L563.5,1000000320.0 L564.0,1000000320.0 L564.6,1000000320.0 L565.1,1000000320.0 L565.7,1000000320.0 L566.2,1000000320.0 L566.8,1000000320.0 L567.3,1000000320.0 L567.9,1000000320.0 L568.4,1000000320.0 L568.9,1000000320.0 L569.5,1000000320.0 L570.0,1000000320.0 L570.6,1000000320.0 L571.1,1000000320.0 L571.7,1000000320.0 L572.2,1000000320.0 L572.8,1000000320.0 L573.3,1000000320.0 L573.9,1000000320.0 L574.4,1000000320.0 L575.0,1000000320.0 L575.5,1000000320.0 L576.1,1000000320.0 L576.6,1000000320.0 L577.1,1000000320.0 L577.7,1000000320.0 L578.2,1000000320.0 L578.8,1000000320.0 L579.3,1000000320.0 L579.9,1000000320.0 L580.4,1000000320.0 L581.0,1000000320.0 L581.5,1000000320.0 L582.1,1000000320.0 L582.6,1000000320.0 L583.2,1000000320.0 L583.7,1000000320.0 L584.3,1000000320.0 L584.8,1000000320.0 L585.3,1000000320.0 L585.9,1000000320.0 L586.4,1000000320.0 L587.0,1000000320.0 L587.5,1000000320.0 L588.1,1000000320.0 L588.6,1000000320.0 L589.2,1000000320.0 L589.7,1000000320.0 L590.3,1000000320.0 L590.8,1000000320.0 L591.4,1000000320.0 L591.9,1000000320.0 L592.5,1000000320.0 L593.0,1000000320.0 L593.5,1000000320.0 L594.1,1000000320.0 L594.6,1000000320.0 L595.2,1000000320.0 L595.7,1000000320.0 L596.3,1000000320.0 L596.8,1000000320.0 L597.4,1000000320.0 L597.9,1000000320.0 L598.5,1000000320.0 L599.0,1000000320.0 L599.6,1000000320.0 L600.1,1000000320.0 L600.7,1000000320.0 L601.2,1000000320.0 L601.7,1000000320.0 L602.3,1000000320.0 L602.8,1000000320.0 L603.4,1000000320.0 L603.9,1000000320.0 L604.5,1000000320.0 L605.0,1000000320.0 L605.6,1000000320.0 L606.1,1000000320.0 L606.7,1000000320.0 L607.2,1000000320.0 L607.8,1000000320.0 L608.3,1000000320.0 L608.9,1000000320.0 L609.4,1000000320.0 L609.9,1000000320.0 L610.5,1000000320.0 L611.0,1000000320.0 L611.6,1000000320.0 L612.1,1000000320.0 L612.7,1000000320.0 L613.2,1000000320.0 L613.8,1000000320.0 L614.3,1000000320.0 L614.9,1000000320.0 L615.4,1000000320.0 L616.0,1000000320.0 L616.5,1000000320.0 L617.1,1000000320.0 L617.6,1000000320.0 L618.1,1000000320.0 L618.7,1000000320.0 L619.2,1000000320.0 L619.8,1000000320.0 L620.3,1000000320.0 L620.9,1000000320.0 L621.4,1000000320.0 L622.0,1000000320.0 L622.5,1000000320.0 L623.1,1000000320.0 L623.6,1000000320.0 L624.2,1000000320.0 L624.7,1000000320.0 L625.3,1000000320.0 L625.8,1000000320.0 L626.3,1000000320.0 L626.9,1000000320.0 L627.4,1000000320.0 L628.0,1000000320.0 L628.5,1000000320.0 L629.1,1000000320.0 L629.6,1000000320.0 L630.2,1000000320.0 L630.7,1000000320.0 L631.3,1000000320.0 L631.8,1000000320.0 L632.4,1000000320.0 L632.9,1000000320.0 L633.5,1000000320.0 L634.0,1000000320.0 L634.5,1000000320.0 L635.1,1000000320.0 L635.6,1000000320.0 L636.2,1000000320.0 L636.7,1000000320.0 L637.3,1000000320.0 L637.8,1000000320.0 L638.4,1000000320.0 L638.9,1000000320.0 L639.5,1000000320.0 L640.0,1000000320.0 L640.6,1000000320.0 L641.1,1000000320.0 L641.7,1000000320.0 L642.2,1000000320.0 L642.7,1000000320.0 L643.3,1000000320.0 L643.8,1000000320.0 L644.4,1000000320.0 L644.9,1000000320.0 L645.5,1000000320.0 L646.0,1000000320.0 L646.6,1000000320.0 L647.1,1000000320.0 L647.7,1000000320.0 L648.2,1000000320.0 L648.8,1000000320.0 L649.3,1000000320.0 L649.9,1000000320.0 L650.4,1000000320.0 L650.9,1000000320.0 L651.5,1000000320.0 L652.0,1000000320.0 L652.6,1000000320.0 L653.1,1000000320.0 L653.7,1000000320.0 L654.2,1000000320.0 L654.8,1000000320.0 L655.3,1000000320.0 L655.9,1000000320.0 L656.4,1000000320.0 L657.0,1000000320.0 L657.5,1000000320.0 L658.1,1000000320.0 L658.6,1000000320.0 L659.1,1000000320.0 L659.7,1000000320.0 L660.2,1000000320.0 L660.8,1000000320.0 L661.3,1000000320.0 L661.9,1000000320.0 L662.4,1000000320.0 L663.0,1000000320.0 L663.5,1000000320.0 L664.1,1000000320.0 L664.6,1000000320.0 L665.2,1000000320.0 L665.7,1000000320.0 L666.3,1000000320.0 L666.8,1000000320.0 L667.3,1000000320.0 L667.9,1000000320.0 L668.4,1000000320.0 L669.0,1000000320.0 L669.5,1000000320.0 L670.1,1000000320.0 L670.6,1000000320.0 L671.2,1000000320.0 L671.7,1000000320.0 L672.3,1000000320.0 L672.8,1000000320.0 L673.4,1000000320.0 L673.9,1000000320.0 L674.5,1000000320.0 L675.0,1000000320.0 L675.5,1000000320.0 L676.1,1000000320.0 L676.6,1000000320.0 L677.2,1000000320.0 L677.7,1000000320.0 L678.3,1000000320.0 L678.8,1000000320.0 L679.4,1000000320.0 L679.9,1000000320.0 L680.5,1000000320.0 L681.0,1000000320.0 L681.6,1000000320.0 L682.1,1000000320.0 L682.7,1000000320.0 L683.2,1000000320.0 L683.7,1000000320.0 L684.3,1000000320.0 L684.8,1000000320.0 L685.4,1000000320.0 L685.9,1000000320.0 L686.5,1000000320.0 L687.0,1000000320.0 L687.6,1000000320.0 L688.1,1000000320.0 L688.7,1000000320.0 L689.2,1000000320.0 L689.8,1000000320.0 L690.3,1000000320.0 L690.9,1000000320.0 L691.4,1000000320.0 L691.9,1000000320.0 L692.5,1000000320.0 L693.0,1000000320.0 L693.6,1000000320.0 L694.1,1000000320.0 L694.7,1000000320.0 L695.2,1000000320.0 L695.8,1000000320.0 L696.3,1000000320.0 L696.9,1000000320.0 L697.4,1000000320.0 L698.0,1000000320.0 L698.5,1000000320.0 L699.1,1000000320.0 L699.6,1000000320.0 L700.1,1000000320.0 L700.7,1000000320.0 L701.2,1000000320.0 L701.8,1000000320.0 L702.3,1000000320.0 L702.9,1000000320.0 L703.4,1000000320.0 L704.0,1000000320.0 L704.5,1000000320.0 L705.1,1000000320.0 L705.6,1000000320.0 L706.2,1000000320.0 L706.7,1000000320.0 L707.3,1000000320.0 L707.8,1000000320.0 L708.3,1000000320.0 L708.9,1000000320.0 L709.4,1000000320.0 L710.0,1000000320.0 L710.5,1000000320.0 L711.1,1000000320.0 L711.6,1000000320.0 L712.2,1000000320.0 L712.7,1000000320.0 L713.3,1000000320.0 L713.8,1000000320.0 L714.4,1000000320.0 L714.9,1000000320.0 L715.5,1000000320.0 L716.0,1000000320.0 L716.5,1000000320.0 L717.1,1000000320.0 L717.6,1000000320.0 L718.2,1000000320.0 L718.7,1000000320.0 L719.3,1000000320.0 L719.8,1000000320.0 L720.4,1000000320.0 L720.9,1000000320.0 L721.5,1000000320.0 L722.0,1000000320.0 L722.6,1000000320.0 L723.1,1000000320.0 L723.7,1000000320.0 L724.2,1000000320.0 L724.7,1000000320.0 L725.3,1000000320.0 L725.8,1000000320.0 L726.4,1000000320.0 L726.9,1000000320.0 L727.5,1000000320.0 L728.0,1000000320.0 L728.6,1000000320.0 L729.1,1000000320.0 L729.7,1000000320.0 L730.2,1000000320.0 L730.8,1000000320.0 L731.3,1000000320.0 L731.9,1000000320.0 L732.4,1000000320.0 L732.9,1000000320.0 L733.5,1000000320.0 L734.0,1000000320.0 L734.6,1000000320.0 L735.1,1000000320.0 L735.7,1000000320.0 L736.2,1000000320.0 L736.8,1000000320.0 L737.3,1000000320.0 L737.9,1000000320.0 L738.4,1000000320.0 L739.0,1000000320.0 L739.5,1000000320.0 L740.1,1000000320.0 L740.6,1000000320.0 L741.1,1000000320.0 L741.7,1000000320.0 L742.2,1000000320.0 L742.8,1000000320.0 L743.3,1000000320.0 L743.9,1000000320.0 L744.4,1000000320.0 L745.0,1000000320.0 L745.5,1000000320.0 L746.1,1000000320.0 L746.6,1000000320.0 L747.2,1000000320.0 L747.7,1000000320.0 L748.3,1000000320.0 L748.8,1000000320.0 L749.3,1000000320.0 L749.9,1000000320.0 L750.4,1000000320.0 L751.0,1000000320.0 L751.5,1000000320.0 L752.1,1000000320.0 L752.6,1000000320.0 L753.2,1000000320.0 L753.7,1000000320.0 L754.3,1000000320.0 L754.8,1000000320.0 L755.4,1000000320.0 L755.9,1000000320.0 L756.5,1000000320.0 L757.0,1000000320.0 L757.5,1000000320.0 L758.1,1000000320.0 L758.6,1000000320.0 L759.2,1000000320.0 L759.7,1000000320.0 L760.3,1000000320.0 L760.8,1000000320.0 L761.4,1000000320.0 L761.9,1000000320.0 L762.5,1000000320.0 L763.0,1000000320.0 L763.6,1000000320.0 L764.1,1000000320.0 L764.7,1000000320.0 L765.2,1000000320.0 L765.7,1000000320.0 L766.3,1000000320.0 L766.8,1000000320.0 L767.4,1000000320.0 L767.9,1000000320.0 L768.5,1000000320.0 L769.0,1000000320.0 L769.6,1000000320.0 L770.1,1000000320.0 L770.7,1000000320.0 L771.2,1000000320.0 L771.8,1000000320.0 L772.3,1000000320.0 L772.9,1000000320.0 L773.4,1000000320.0 L773.9,1000000320.0 L774.5,1000000320.0 L775.0,1000000320.0 L775.6,1000000320.0 L776.1,1000000320.0 L776.7,1000000320.0 L777.2,1000000320.0 L777.8,1000000320.0 L778.3,1000000320.0 L778.9,1000000320.0 L779.4,1000000320.0 L780.0,1000000320.0 L780.5,1000000320.0 L781.1,1000000320.0 L781.6,1000000320.0 L782.1,1000000320.0 L782.7,1000000320.0 L783.2,1000000320.0 L783.8,1000000320.0 L784.3,1000000320.0 L784.9,1000000320.0 L785.4,1000000320.0 L786.0,1000000320.0 L786.5,1000000320.0 L787.1,1000000320.0 L787.6,1000000320.0 L788.2,1000000320.0 L788.7,1000000320.0 L789.3,1000000320.0 L789.8,1000000320.0 L790.3,1000000320.0 L790.9,1000000320.0 L791.4,1000000320.0 L792.0,1000000320.0 L792.5,1000000320.0 L793.1,1000000320.0 L793.6,1000000320.0 L794.2,1000000320.0 L794.7,1000000320.0 L795.3,1000000320.0 L795.8,1000000320.0 L796.4,1000000320.0 L796.9,1000000320.0 L797.5,1000000320.0 L798.0,1000000320.0 L798.5,1000000320.0 L799.1,1000000320.0 L799.6,1000000320.0 L800.2,1000000320.0 L800.7,1000000320.0 L801.3,1000000320.0 L801.8,1000000320.0 L802.4,1000000320.0 L802.9,1000000320.0 L803.5,1000000320.0 L804.0,1000000320.0 L804.6,1000000320.0 L805.1,1000000320.0 L805.7,1000000320.0 L806.2,1000000320.0 L806.7,1000000320.0 L807.3,1000000320.0 L807.8,1000000320.0 L808.4,1000000320.0 L808.9,1000000320.0 L809.5,1000000320.0 L810.0,1000000320.0 L810.6,1000000320.0 L811.1,1000000320.0 L811.7,1000000320.0 L812.2,1000000320.0 L812.8,1000000320.0 L813.3,1000000320.0 L813.9,1000000320.0 L814.4,1000000320.0 L814.9,1000000320.0 L815.5,1000000320.0 L816.0,1000000320.0 L816.6,1000000320.0 L817.1,1000000320.0 L817.7,1000000320.0 L818.2,1000000320.0 L818.8,1000000320.0 L819.3,1000000320.0 L819.9,1000000320.0 L820.4,1000000320.0 L821.0,1000000320.0 L821.5,1000000320.0 L822.1,1000000320.0 L822.6,1000000320.0 L823.1,1000000320.0 L823.7,1000000320.0 L824.2,1000000320.0 L824.8,1000000320.0 L825.3,1000000320.0 L825.9,1000000320.0 L826.4,1000000320.0 L827.0,1000000320.0 L827.5,1000000320.0 L828.1,1000000320.0 L828.6,1000000320.0 L829.2,1000000320.0 L829.7,1000000320.0 L830.3,1000000320.0 L830.8,1000000320.0 L831.3,1000000320.0 L831.9,1000000320.0 L832.4,1000000320.0 L833.0,1000000320.0 L833.5,1000000320.0 L834.1,1000000320.0 L834.6,1000000320.0 L835.2,1000000320.0 L835.7,1000000320.0 L836.3,1000000320.0 L836.8,1000000320.0 L837.4,1000000320.0 L837.9,1000000320.0 L838.5,1000000320.0 L839.0,1000000320.0 L839.5,1000000320.0 L840.1,1000000320.0 L840.6,1000000320.0 L841.2,1000000320.0 L841.7,1000000320.0 L842.3,1000000320.0 L842.8,1000000320.0 L843.4,1000000320.0 L843.9,1000000320.0 L844.5,1000000320.0 L845.0,1000000320.0 L845.6,1000000320.0 L846.1,1000000320.0 L846.7,1000000320.0 L847.2,1000000320.0 L847.7,1000000320.0 L848.3,1000000320.0 L848.8,1000000320.0 L849.4,1000000320.0 L849.9,1000000320.0 L850.5,1000000320.0 L851.0,1000000320.0 L851.6,1000000320.0 L852.1,1000000320.0 L852.7,1000000320.0 L853.2,1000000320.0 L853.8,1000000320.0 L854.3,1000000320.0 L854.9,1000000320.0 L855.4,1000000320.0 L855.9,1000000320.0 L856.5,1000000320.0 L857.0,1000000320.0 L857.6,1000000320.0 L858.1,1000000320.0 L858.7,1000000320.0 L859.2,1000000320.0 L859.8,1000000320.0 L860.3,1000000320.0 L860.9,1000000320.0 L861.4,1000000320.0 L862.0,1000000320.0 L862.5,1000000320.0 L863.1,1000000320.0 L863.6,1000000320.0 L864.1,1000000320.0 L864.7,1000000320.0 L865.2,1000000320.0 L865.8,1000000320.0 L866.3,1000000320.0 L866.9,1000000320.0 L867.4,1000000320.0 L868.0,1000000320.0 L868.5,1000000320.0 L869.1,1000000320.0 L869.6,1000000320.0 L870.2,1000000320.0 L870.7,1000000320.0 L871.3,1000000320.0 L871.8,1000000320.0 L872.3,1000000320.0 L872.9,1000000320.0 L873.4,1000000320.0 L874.0,1000000320.0 L874.5,1000000320.0 L875.1,1000000320.0 L875.6,1000000320.0 L876.2,1000000320.0 L876.7,1000000320.0 L877.3,1000000320.0 L877.8,1000000320.0 L878.4,1000000320.0 L878.9,1000000320.0 L879.5,1000000320.0 L880.0,1000000320.0" fill="none" stroke="#b33b15" stroke-width="1" stroke-dasharray="4"/>
</svg>
